<?xml version="1.0" encoding="utf-8"?>
<!-- Generator: Adobe Illustrator 27.1.1, SVG Export Plug-In . SVG Version: 6.00 Build 0)  -->
<svg version="1.1" id="Layer_1" xmlns="http://www.w3.org/2000/svg" xmlns:xlink="http://www.w3.org/1999/xlink" x="0px" y="0px"
	 viewBox="0 0 480.2 43.3" style="enable-background:new 0 0 480.2 43.3;" xml:space="preserve">
<style type="text/css">
	.st0{fill:url(#SVGID_1_);stroke:#E2001A;stroke-miterlimit:10;}
	.st1{fill:url(#SVGID_00000053510211264077050270000010312920303845459643_);stroke:#E2001A;stroke-miterlimit:10;}
	.st2{fill:url(#SVGID_00000100343639890798433950000013457850982695097250_);stroke:#E2001A;stroke-miterlimit:10;}
	.st3{fill:url(#SVGID_00000049934481238538219780000000763221870746569884_);stroke:#E2001A;stroke-miterlimit:10;}
	.st4{fill:url(#SVGID_00000134956385172218626560000007458662667511570307_);stroke:#E2001A;stroke-miterlimit:10;}
	.st5{fill:url(#SVGID_00000145050714730433603820000013355484662970921600_);stroke:#E2001A;stroke-miterlimit:10;}
	.st6{fill:url(#SVGID_00000053533651805855212760000017634543128624724877_);stroke:#9D391A;stroke-miterlimit:10;}
	.st7{fill:url(#SVGID_00000100365177633418650110000002045309813509225380_);stroke:#9D391A;stroke-miterlimit:10;}
	.st8{fill:url(#SVGID_00000058573372672828139630000008230851298028550332_);stroke:#9D391A;stroke-miterlimit:10;}
	.st9{fill:url(#SVGID_00000173124895451232353770000001132230488375739023_);stroke:#9D391A;stroke-miterlimit:10;}
	.st10{fill:url(#SVGID_00000036253611938507786370000012692976679246567839_);stroke:#9D391A;stroke-miterlimit:10;}
	.st11{fill:url(#SVGID_00000127753250632936671430000002123516338079002288_);stroke:#334996;stroke-miterlimit:10;}
	.st12{fill:url(#SVGID_00000077293094734811989110000000164631617728227226_);stroke:#334996;stroke-miterlimit:10;}
	.st13{fill:url(#SVGID_00000023276917131563230780000006105546678449235607_);stroke:#334996;stroke-miterlimit:10;}
	.st14{fill:url(#SVGID_00000075874482320616070970000011839162571827342240_);stroke:#334996;stroke-miterlimit:10;}
	.st15{fill:url(#SVGID_00000176749038001743697290000007490830459920199080_);stroke:#334996;stroke-miterlimit:10;}
	.st16{fill:url(#SVGID_00000029017494209773583100000004149029612873882804_);stroke:#334996;stroke-miterlimit:10;}
	.st17{fill:url(#SVGID_00000128462074671388540870000014686371031153232304_);stroke:#334996;stroke-miterlimit:10;}
</style>
<g>
	<path d="M32.3,18.3l-0.5-0.1l-2.1,1.1l-0.5-0.6l-0.1,0.8l-0.3,0l-0.2,0.1l-0.7,0l-0.1-0.7l-0.7-0.4l-0.2-0.9l-0.1,1.1l0.4,0.3
		l0.1,0.9l-1,0.6l-0.8-1.2l-0.2,1.5l-0.3,0l-0.3,0.4l-1.3-3l-2.2-2.1l-2.1,1.6L18,20.2l7.2,2.8l7.2,6.8L29,36.1
		c-0.2,0-0.6,0.1-1.4,0.3c-0.8,0.2-1.6,0.4-2.5,0.6c-0.9,0.2-1.7,0.4-2.4,0.6C22,37.9,21.7,38,21.6,38c-0.3,0-0.6,0-0.8,0
		c-0.2,0-0.5,0-0.7-0.1c-0.2,0-0.4-0.1-0.6-0.1l-4.2-0.3c-0.5-0.1-1-0.2-1.4-0.3c-0.2,0-0.4-0.1-0.6-0.1l-4-1l0.6-0.1l-0.3-0.8
		l3.6,0.9l-3.2-1.3l1-0.8l-0.2-1.8l1.2-0.1l-1-0.6l0.8-1.7c0-0.1,0-0.2,0-0.3c0-0.2,0-0.4,0-0.7c0-0.2,0-0.4,0-0.4l3.9,1.1
		c0.3,0.1,0.5,0.1,0.7,0.2c0.4,0.1,0.8,0.2,1.2,0.3c0.4,0.1,0.7,0.1,1,0.1c0.3,0,0.6,0.1,1,0.1l4,0.5c0.1,0,0.2,0,0.2,0
		c0.1,0,0.1,0,0.2,0c0.1,0,0.1,0,0.2,0l0.4-0.3c-0.6-0.4-1.3-0.7-2-0.9c-0.2-0.1-0.4-0.1-0.7-0.2L14,26.9l-4.3-6.2l3.4-8.6L21.3,8
		l7.2,3.5L32.3,18.3z M25,17.9l0-0.7l-0.6-1.5l0.2,2.1L25,17.9z"/>
	<path d="M56.6,37.5l-2.7,0.4l-0.3-0.8l-0.4,0.8l-0.3-0.1l-0.3,0.1l-0.8-0.2l0.1-0.9L51.2,36v-1.1l-0.5,1.2l0.4,0.5l-0.1,1
		c-0.1,0-0.2,0-0.3,0c-0.1,0-0.2,0.1-0.3,0.1c-0.1,0-0.3,0-0.4,0c-0.1,0-0.3,0-0.4,0l-0.4-1.3l-0.7,1.3h-0.2c0.1-1,0.1-2,0.1-3.1
		c0-0.3,0-0.7,0-1c-0.7,0-1.3-0.1-2-0.1c-0.7,0-1.3-0.1-2-0.1c0.1,0.8,0.1,1.6,0.1,2.4v1l-1.9,0.2l-0.3-0.8L42,37.1l-0.3-0.2
		L41.4,37l-0.8-0.2l0.1-0.9l-0.6-0.7l0-1.1l-0.5,1.2l0.3,0.5l-0.1,1l-1.4,0.3L38,35.6l-0.8,1.6l-0.3-0.1l-0.5,0.1l-0.1-4.3
		c0-0.3,0-0.6,0-0.9c0-0.4,0-0.9,0-1.3l0.4-6.4c0-0.4,0-0.7,0-1c0-0.6,0.1-1.4,0.2-2.2c0.2-0.7,0.4-1.4,0.6-1.9
		c0.1-0.4,0.3-0.8,0.4-1.2l2.2-6.3l8-4.2l6.2,4l0.8,2.9l1.5,5.7c0.1,0.6,0.1,1.2,0.1,1.6c0,0.3,0,0.6,0,1l0.2,5.3
		c0,2.1-0.1,4.2-0.2,6.3C56.6,35.4,56.6,36.5,56.6,37.5z M37.9,33.8l0.3-0.8l0-1.9l-0.5,2.4L37.9,33.8z M44.4,30.8l0.3,0.2
		c0-0.1,0.1-0.2,0.1-0.3s0-0.3,0-0.4c0-0.1,0-0.2,0-0.3c0-0.1,0-0.2,0-0.2c0-0.1,0-0.1,0-0.1c0,0,0-0.1,0-0.1c0,0,0.1-0.1,0.1-0.2
		c0,0,0,0,0,0v0.1c0,0.1,0,0.1,0,0.2c0,0.1,0,0.2,0,0.2l0.1-0.3h0l0,0l0.1,0c0-0.2,0-0.4,0-0.5l0.1-0.1l0,0c0,0,0,0,0,0h0.1v0
		c0,0,0,0,0,0c0,0,0-0.1,0-0.1c0,0,0,0-0.1,0v-0.1v0c0,0,0-0.1,0-0.1v-0.1c0,0-0.1,0-0.1,0c0,0-0.1,0-0.1,0c0,0,0,0-0.1,0
		c0,0,0,0.1,0,0.1c0,0,0,0.1,0,0.1c0,0.1,0,0.1,0,0.1c0,0,0,0,0,0.1c0,0,0.1,0,0.1,0c0,0,0,0.1,0,0.1c0,0,0,0.1,0,0.1c0,0,0,0,0,0.1
		c0,0,0,0,0,0c0,0,0-0.1,0-0.1c0,0,0-0.1,0-0.1c0,0-0.1,0-0.1,0c0,0-0.1,0-0.1,0s0,0-0.1,0v-0.2v-0.1v0h0l0-0.1h0c0-0.1,0-0.1,0-0.1
		c0,0,0-0.1,0-0.1c0-0.2,0-0.3,0-0.4c0-0.1,0-0.2,0-0.3c0-0.1-0.1-0.2-0.1-0.2c-0.1-0.1-0.2-0.2-0.5-0.3c0-0.1,0.1-0.2,0.1-0.3
		c0-0.1,0-0.3,0-0.4s0-0.2,0-0.3c0-0.1,0-0.2,0-0.3l-0.1,1.3c0,0,0.1,0.1,0.1,0.1c0.1,0.1,0.2,0.1,0.3,0.2c0.1,0.1,0.1,0.2,0.1,0.3
		c0,0,0,0.2,0,0.4c0,0.2,0,0.5-0.1,0.7c0,0.3-0.1,0.5-0.1,0.7c0,0.2,0,0.4,0,0.4c-0.1,0.1-0.1,0.3-0.1,0.4c0,0,0,0.1,0,0.1
		c0,0.1,0,0.1,0.1,0.2L44.4,30.8C44.5,30.7,44.5,30.8,44.4,30.8C44.4,30.8,44.4,30.8,44.4,30.8z M44.6,25.2c0.7,0,1.4,0.1,2.2,0.1
		c0.7,0.1,1.4,0.1,2.1,0.1c0-0.9,0-1.7,0-2.6c0-0.9,0-1.7,0-2.6c0-0.6,0-1.4-0.1-2.4c-0.1-0.9-0.3-1.7-0.6-2.3l-2.2,2.1
		c-0.4,1.1-0.7,2.3-0.9,3.7C44.9,22.8,44.7,24.1,44.6,25.2z M49,34.7l0.3-0.8L49.3,32l-0.5,2.4L49,34.7z"/>
	<path d="M71.9,37.5l-1.6,0.2L70.1,37l-0.4,0.7l-0.3-0.1l-0.2,0.1l-0.7-0.1l0.1-0.8L68,36.1v-0.9l-0.4,1l0.3,0.4l-0.1,0.9l-1.3-0.3
		l-0.2-0.8l-0.3,0.7l-1.8-0.4c-0.5-3-1-6.1-1.5-9.2c-0.5-3.1-1.1-6.1-1.6-9.2c-0.1-0.7-0.3-1.4-0.4-2.2c-0.2-1-0.4-2-0.5-2.9
		c-0.2-1.1-0.3-2.2-0.4-3.4c-0.1-0.6-0.1-1.1-0.2-1.7c0.1,0,0.2-0.1,0.3-0.1c0.1,0,0.2,0,0.3,0h1.7L62,8.6l0.2-0.5h1.3l-0.1,0.8
		L64,9.5l0,0.9l0.4-1l-0.3-0.5l0.1-0.8h1.2l0.3,1.1l0.5-1.1h1.4c0.5,4.5,1.2,9,2.2,13.5l0.6-2.3l1.2-4.5c0.1-0.5,0.1-1,0.1-1.4
		c0-0.3,0.1-0.5,0.1-0.9L72.4,8c2.8,0,5.5,0,8.2-0.1v0.3c0,0.1,0,0.1,0,0.1c0,0,0,0.1,0,0.1l-1.9,10.3c-0.1,0.6-0.2,1.2-0.2,1.8
		c-0.1,1-0.3,2.2-0.7,3.4c-0.4,1.1-0.8,2.1-1.2,3c-0.2,0.4-0.5,1-0.7,1.5L71.9,37.5z M65.8,10.7l-0.2,0.7l0,1.6l0.4-2L65.8,10.7z
		 M66.2,34.9l0.3-0.6l-0.1-1.6l-0.4,2.1L66.2,34.9z M71.5,38.3l-0.1,0L71.5,38.3L71.5,38.3z"/>
	<path d="M103.2,37.5l-2.7,0.4l-0.3-0.8l-0.4,0.8l-0.3-0.1l-0.3,0.1l-0.8-0.2l0.1-0.9L97.9,36v-1.1l-0.5,1.2l0.4,0.5l-0.1,1
		c-0.1,0-0.2,0-0.3,0c-0.1,0-0.2,0.1-0.3,0.1c-0.1,0-0.3,0-0.4,0c-0.1,0-0.3,0-0.4,0l-0.4-1.3l-0.7,1.3h-0.2c0.1-1,0.1-2,0.1-3.1
		c0-0.3,0-0.7,0-1c-0.7,0-1.3-0.1-2-0.1c-0.7,0-1.3-0.1-2-0.1c0.1,0.8,0.1,1.6,0.1,2.4v1l-1.9,0.2L89,36.2l-0.4,0.9l-0.3-0.2L88,37
		l-0.8-0.2l0.1-0.9l-0.6-0.7l0-1.1l-0.5,1.2l0.3,0.5l-0.1,1L85,37.1l-0.4-1.6l-0.8,1.6l-0.3-0.1L83,37.2l-0.1-4.3c0-0.3,0-0.6,0-0.9
		c0-0.4,0-0.9,0-1.3l0.4-6.4c0-0.4,0-0.7,0-1c0-0.6,0.1-1.4,0.2-2.2c0.2-0.7,0.4-1.4,0.6-1.9c0.1-0.4,0.3-0.8,0.4-1.2l2.2-6.3l8-4.2
		l6.2,4l0.8,2.9l1.5,5.7c0.1,0.6,0.1,1.2,0.1,1.6c0,0.3,0,0.6,0,1l0.2,5.3c0,2.1-0.1,4.2-0.2,6.3C103.2,35.4,103.2,36.5,103.2,37.5z
		 M84.5,33.8l0.3-0.8l0-1.9l-0.5,2.4L84.5,33.8z M91,30.8l0.3,0.2c0-0.1,0.1-0.2,0.1-0.3s0-0.3,0-0.4c0-0.1,0-0.2,0-0.3
		c0-0.1,0-0.2,0-0.2c0-0.1,0-0.1,0-0.1c0,0,0-0.1,0-0.1c0,0,0.1-0.1,0.1-0.2c0,0,0,0,0,0v0.1c0,0.1,0,0.1,0,0.2c0,0.1,0,0.2,0,0.2
		l0.1-0.3h0l0,0l0.1,0c0-0.2,0-0.4,0-0.5l0.1-0.1l0,0c0,0,0,0,0,0h0.1v0c0,0,0,0,0,0c0,0,0-0.1,0-0.1c0,0,0,0-0.1,0v-0.1v0
		c0,0,0-0.1,0-0.1v-0.1c0,0-0.1,0-0.1,0c0,0-0.1,0-0.1,0c0,0,0,0-0.1,0c0,0,0,0.1,0,0.1c0,0,0,0.1,0,0.1c0,0.1,0,0.1,0,0.1
		c0,0,0,0,0,0.1c0,0,0.1,0,0.1,0c0,0,0,0.1,0,0.1c0,0,0,0.1,0,0.1c0,0,0,0,0,0.1c0,0,0,0,0,0c0,0,0-0.1,0-0.1c0,0,0-0.1,0-0.1
		c0,0-0.1,0-0.1,0c0,0-0.1,0-0.1,0s0,0-0.1,0v-0.2v-0.1v0h0l0-0.1h0c0-0.1,0-0.1,0-0.1c0,0,0-0.1,0-0.1c0-0.2,0-0.3,0-0.4
		c0-0.1,0-0.2,0-0.3c0-0.1-0.1-0.2-0.1-0.2c-0.1-0.1-0.2-0.2-0.5-0.3c0-0.1,0.1-0.2,0.1-0.3c0-0.1,0-0.3,0-0.4s0-0.2,0-0.3
		c0-0.1,0-0.2,0-0.3l-0.1,1.3c0,0,0.1,0.1,0.1,0.1c0.1,0.1,0.2,0.1,0.3,0.2c0.1,0.1,0.1,0.2,0.1,0.3c0,0,0,0.2,0,0.4
		c0,0.2,0,0.5-0.1,0.7c0,0.3-0.1,0.5-0.1,0.7c0,0.2,0,0.4,0,0.4c-0.1,0.1-0.1,0.3-0.1,0.4c0,0,0,0.1,0,0.1c0,0.1,0,0.1,0.1,0.2
		L91,30.8C91.1,30.7,91.1,30.8,91,30.8C91,30.8,91,30.8,91,30.8z M91.2,25.2c0.7,0,1.4,0.1,2.2,0.1c0.7,0.1,1.4,0.1,2.1,0.1
		c0-0.9,0-1.7,0-2.6c0-0.9,0-1.7,0-2.6c0-0.6,0-1.4-0.1-2.4c-0.1-0.9-0.3-1.7-0.6-2.3l-2.2,2.1c-0.4,1.1-0.7,2.3-0.9,3.7
		C91.5,22.8,91.3,24.1,91.2,25.2z M95.6,34.7l0.3-0.8L95.9,32l-0.5,2.4L95.6,34.7z"/>
	<path d="M128.9,23.2c0,3.7,0,7.5,0,11.3c-0.3,0.1-0.7,0.4-1.4,0.8c-0.7,0.4-1.3,0.7-1.9,1c-0.6,0.3-1,0.5-1.2,0.6
		c-0.1,0-0.5,0.1-1,0.2c-0.5,0.1-1.1,0.2-1.8,0.3c-0.6,0.1-1.2,0.2-1.7,0.2c-0.3,0-0.4,0.1-0.6,0.1l-9.2-3.2l-2.5-9.4l2.4-11.3
		l8.8-6.2l5.4,1.6l4.4,3.6c-2,1.9-4,3.7-6,5.6l-1.5-1.8l-2-1l-2.8,4.7l-0.8,6.2l0.7,3.1l3.1,0.6c0.2,0,0.3,0,0.4,0
		c0.2,0,0.4,0,0.6,0c0.2,0,0.3,0,0.3,0c0-2.2,0-4.4,0-6.6l0.5,0.4l2.3-0.3l0.3,0.7l0.3-0.7l0.3,0.1l0.3-0.1l0.7,0.2l-0.1,0.8
		l0.5,0.6l0,0.9l0.4-1.1l-0.3-0.4l0.1-0.8l1.2-0.3l0.3,1.3l0.7-1.4l0.3,0.1L128.9,23.2L128.9,23.2z M127.6,26.2l-0.2,0.6l0,1.6
		l0.4-2.1L127.6,26.2z"/>
	<path d="M150.6,16c-5.7,0-11.4,0.1-17.1,0.2c0.1-0.9,0.1-1.7,0-2.6c0-0.3,0-0.6,0-0.9c0-0.6,0.1-1.3,0.1-1.9
		c0.1-0.9,0.1-1.9,0.1-2.8c1.9,0,3.8,0,5.6,0c2.8-0.1,5.7-0.1,8.5-0.1h2.8V8l-0.4,0.6l0.3,2.3l-0.7,0.2l0.7,0.3l-0.1,0.3l0,0.2
		l-0.1,0.7l-0.8-0.1l-0.6,0.6h-0.9l1,0.4l0.4-0.3l0.9,0.1c0,0,0,0.1,0,0.2c0,0.1,0.1,0.2,0.1,0.4c0,0.1,0,0.2,0,0.3v0.2l-1.2,0.4
		l1.2,0.6V16z M151.3,28.4c0,0.2,0,0.3,0,0.4c0,0.2-0.1,0.4-0.1,0.6c0,0.2,0,0.3,0,0.4l0.7,1.8l-1.1,0.5l1.2,0.2l-0.4,1.8l0.9,1
		l-3.3,1l3.6-0.6l-0.3,0.8l0.5,0.1v0c-0.6,0.1-1.2,0.1-1.8,0.2c-1.1,0.2-2.1,0.3-3.1,0.4c-0.5,0-1.1,0-1.7,0c-0.4,0-0.7,0-1.1,0
		c-0.8,0.1-1.5,0.1-2.3,0.1c-0.2,0-0.4,0-0.6,0c-0.2,0-0.4,0-0.6,0c-0.3,0-0.6,0-1,0c-0.6,0-1.2,0-1.6-0.1c-0.1,0-0.3-0.1-0.5-0.1
		c-0.2-0.1-0.3-0.1-0.5-0.2c-0.1,0-0.1-0.1-0.2-0.1c-0.6-0.2-1.3-0.4-1.9-0.6c-0.1-0.1-0.3-0.1-0.4-0.1c-0.2-0.9-0.4-1.8-0.6-2.7
		c-0.2-0.9-0.4-1.8-0.6-2.7c-0.1-0.3-0.1-0.6-0.2-1c-0.2-0.6-0.3-1.2-0.4-1.7c-0.1-1-0.1-2.1-0.1-3.3c0-0.3,0-0.5,0-0.7
		c0-0.8,0-1.5,0-2.3c-0.1-1.5-0.1-3-0.1-4.6v-0.2l0.7,0.5l2.3-0.3l0.2,0.7l0.4-0.7l0.3,0.1l0.2-0.1l0.7,0.1l-0.1,0.8l0.5,0.6v0.9
		l0.4-1.1l-0.3-0.4l0.1-0.8l1.2-0.3l0.4,1.3l0.7-1.4l0.2,0.1c0,0.2,0,0.3,0,0.5c0,0.2,0,0.4,0,0.5c0,0.6,0,1.2,0,1.8l9.2-0.3
		c0.1,1.2,0.1,2.4,0.2,3.6c0,1.2,0.1,2.4,0.1,3.6c-1.6,0.1-3.1,0.1-4.7,0.1c-1.6,0.1-3.1,0.1-4.7,0.2v0.3c0,0.4,0.1,0.8,0.3,1.1
		c0.1,0.2,0.2,0.5,0.2,0.7c0.2,0,0.4,0.1,0.7,0.1c0.4,0.1,0.7,0.1,1.1,0.1C146.2,29.1,148.7,28.9,151.3,28.4z M140.6,19.5l-0.3,0.6
		l0.1,1.6l0.4-2.1L140.6,19.5z M147.8,15.1l-0.7-0.2l-1.6,0.1l2.1,0.4L147.8,15.1z"/>
	<path d="M185.9,37.5l-1.6,0.2l-0.2-0.7l-0.4,0.7l-0.3-0.1l-0.2,0.1l-0.7-0.1l0.1-0.8l-0.5-0.6v-0.9l-0.4,1l0.3,0.4l-0.1,0.9
		l-1.3-0.3l-0.2-0.8l-0.3,0.7l-1.8-0.4c-0.5-3-1-6.1-1.5-9.2c-0.5-3.1-1.1-6.1-1.6-9.2c-0.1-0.7-0.3-1.4-0.4-2.2
		c-0.2-1-0.4-2-0.5-2.9c-0.2-1.1-0.3-2.2-0.4-3.4c-0.1-0.6-0.1-1.1-0.2-1.7c0.1,0,0.2-0.1,0.3-0.1c0.1,0,0.2,0,0.3,0h1.7l0.2,0.5
		l0.2-0.5h1.3l-0.1,0.8l0.6,0.6l0,0.9l0.4-1l-0.3-0.5l0.1-0.8h1.2l0.3,1.1l0.5-1.1h1.4c0.5,4.5,1.2,9,2.2,13.5l0.6-2.3l1.2-4.5
		c0.1-0.5,0.1-1,0.1-1.4c0-0.3,0.1-0.5,0.1-0.9l0.5-4.6c2.8,0,5.5,0,8.2-0.1v0.3c0,0.1,0,0.1,0,0.1c0,0,0,0.1,0,0.1l-1.9,10.3
		c-0.1,0.6-0.2,1.2-0.2,1.8c-0.1,1-0.3,2.2-0.7,3.4c-0.4,1.1-0.8,2.1-1.2,3c-0.2,0.4-0.5,1-0.7,1.5L185.9,37.5z M179.8,10.7
		l-0.2,0.7l0,1.6l0.4-2L179.8,10.7z M180.2,34.9l0.3-0.6l-0.1-1.6l-0.4,2.1L180.2,34.9z M185.5,38.3l-0.1,0L185.5,38.3L185.5,38.3z"
		/>
	<path d="M217.2,37.5l-2.7,0.4l-0.3-0.8l-0.4,0.8l-0.3-0.1l-0.3,0.1l-0.8-0.2l0.1-0.9l-0.6-0.7v-1.1l-0.5,1.2l0.4,0.5l-0.1,1
		c-0.1,0-0.2,0-0.3,0c-0.1,0-0.2,0.1-0.3,0.1c-0.1,0-0.3,0-0.4,0c-0.1,0-0.3,0-0.4,0l-0.4-1.3l-0.7,1.3h-0.2c0.1-1,0.1-2,0.1-3.1
		c0-0.3,0-0.7,0-1c-0.7,0-1.3-0.1-2-0.1c-0.7,0-1.3-0.1-2-0.1c0.1,0.8,0.1,1.6,0.1,2.4v1l-1.9,0.2l-0.3-0.8l-0.4,0.9l-0.3-0.2
		L202,37l-0.8-0.2l0.1-0.9l-0.6-0.7l0-1.1l-0.5,1.2l0.3,0.5l-0.1,1l-1.4,0.3l-0.4-1.6l-0.8,1.6l-0.3-0.1l-0.5,0.1l-0.1-4.3
		c0-0.3,0-0.6,0-0.9c0-0.4,0-0.9,0-1.3l0.4-6.4c0-0.4,0-0.7,0-1c0-0.6,0.1-1.4,0.2-2.2c0.2-0.7,0.4-1.4,0.6-1.9
		c0.1-0.4,0.3-0.8,0.4-1.2l2.2-6.3l8-4.2l6.2,4l0.8,2.9l1.5,5.7c0.1,0.6,0.1,1.2,0.1,1.6c0,0.3,0,0.6,0,1l0.2,5.3
		c0,2.1-0.1,4.2-0.2,6.3C217.2,35.4,217.2,36.5,217.2,37.5z M198.5,33.8l0.3-0.8l0-1.9l-0.5,2.4L198.5,33.8z M205,30.8l0.3,0.2
		c0-0.1,0.1-0.2,0.1-0.3s0-0.3,0-0.4c0-0.1,0-0.2,0-0.3c0-0.1,0-0.2,0-0.2c0-0.1,0-0.1,0-0.1c0,0,0-0.1,0-0.1c0,0,0.1-0.1,0.1-0.2
		c0,0,0,0,0,0v0.1c0,0.1,0,0.1,0,0.2c0,0.1,0,0.2,0,0.2l0.1-0.3h0l0,0l0.1,0c0-0.2,0-0.4,0-0.5l0.1-0.1l0,0c0,0,0,0,0,0h0.1v0
		c0,0,0,0,0,0c0,0,0-0.1,0-0.1c0,0,0,0-0.1,0v-0.1v0c0,0,0-0.1,0-0.1v-0.1c0,0-0.1,0-0.1,0c0,0-0.1,0-0.1,0c0,0,0,0-0.1,0
		c0,0,0,0.1,0,0.1c0,0,0,0.1,0,0.1c0,0.1,0,0.1,0,0.1c0,0,0,0,0,0.1c0,0,0.1,0,0.1,0c0,0,0,0.1,0,0.1c0,0,0,0.1,0,0.1c0,0,0,0,0,0.1
		c0,0,0,0,0,0c0,0,0-0.1,0-0.1c0,0,0-0.1,0-0.1c0,0-0.1,0-0.1,0c0,0-0.1,0-0.1,0s0,0-0.1,0v-0.2v-0.1v0h0l0-0.1h0c0-0.1,0-0.1,0-0.1
		c0,0,0-0.1,0-0.1c0-0.2,0-0.3,0-0.4c0-0.1,0-0.2,0-0.3c0-0.1-0.1-0.2-0.1-0.2c-0.1-0.1-0.2-0.2-0.5-0.3c0-0.1,0.1-0.2,0.1-0.3
		c0-0.1,0-0.3,0-0.4s0-0.2,0-0.3c0-0.1,0-0.2,0-0.3l-0.1,1.3c0,0,0.1,0.1,0.1,0.1c0.1,0.1,0.2,0.1,0.3,0.2c0.1,0.1,0.1,0.2,0.1,0.3
		c0,0,0,0.2,0,0.4c0,0.2,0,0.5-0.1,0.7c0,0.3-0.1,0.5-0.1,0.7c0,0.2,0,0.4,0,0.4c-0.1,0.1-0.1,0.3-0.1,0.4c0,0,0,0.1,0,0.1
		c0,0.1,0,0.1,0.1,0.2L205,30.8C205.1,30.7,205.1,30.8,205,30.8C205,30.8,205,30.8,205,30.8z M205.2,25.2c0.7,0,1.4,0.1,2.2,0.1
		c0.7,0.1,1.4,0.1,2.1,0.1c0-0.9,0-1.7,0-2.6c0-0.9,0-1.7,0-2.6c0-0.6,0-1.4-0.1-2.4c-0.1-0.9-0.3-1.7-0.6-2.3l-2.2,2.1
		c-0.4,1.1-0.7,2.3-0.9,3.7C205.5,22.8,205.3,24.1,205.2,25.2z M209.6,34.7l0.3-0.8l-0.1-1.9l-0.5,2.4L209.6,34.7z"/>
	<path d="M220.9,8.7V8.6c0.4,0,0.9,0,1.4,0c1,0,1.9,0,2.8,0c1,0,2-0.1,2.9-0.1c1.2-0.1,2.4-0.1,3.6-0.1c0.1,0,0.4,0.1,1,0.2
		c0.6,0.1,1.3,0.2,2.1,0.4c0.8,0.2,1.6,0.3,2.4,0.5c0.7,0.1,1.4,0.2,1.9,0.4c0.5,0.1,0.9,0.2,1.1,0.2l3.9,7.1l-1.4,5.7l-3.3,4.9
		c1.5,3.1,3.2,6,5.2,8.8c-2.3,1.5-4.6,3-6.9,4.5c-1.7-2.4-3.2-4.9-4.7-7.5c-0.4,0.2-0.8,0.5-1.2,0.8l0.1,3.3
		c-2.8,0.1-5.5,0.2-8.3,0.2c-0.3-6.9-0.4-13.8-0.4-20.6l0.3,0.2l2.3-0.3l0.2,0.7l0.4-0.7l0.3,0.1l0.2,0l0.7,0.1l-0.1,0.8l0.5,0.6
		v0.9l0.4-1l-0.3-0.4l0.1-0.9l1.2-0.2l0.4,1.3l0.7-1.4l0.3,0.1l0.6-0.4l0.1,10.2l0.9-1.5l1.9-3.1c0.1-0.3,0.2-0.7,0.4-1.3
		s0.4-1.3,0.6-2c0.2-0.8,0.4-1.3,0.5-1.7c-0.5-0.3-1.1-0.5-1.9-0.6c-0.7-0.2-1.4-0.2-2-0.2h0l-8.8,0.1v-0.1h-2.3l0.7-0.4l-0.6-0.6
		l3.6-0.4l-3.4,0l0.6-1.1l-0.9-1.6l1.1-0.5l-1.2-0.2l0.1-1.9L220.9,8.7z M230.1,19.6l-0.3,0.7l0.1,1.6l0.4-2.1L230.1,19.6z"/>
	<path d="M268.6,37.5l-2.7,0.4l-0.3-0.8l-0.4,0.8l-0.3-0.1l-0.3,0.1l-0.8-0.2l0.1-0.9l-0.6-0.7v-1.1l-0.5,1.2l0.4,0.5l-0.1,1
		c-0.1,0-0.2,0-0.3,0c-0.1,0-0.2,0.1-0.3,0.1c-0.1,0-0.3,0-0.4,0c-0.1,0-0.3,0-0.4,0l-0.4-1.3l-0.7,1.3h-0.2c0.1-1,0.1-2,0.1-3.1
		c0-0.3,0-0.7,0-1c-0.7,0-1.3-0.1-2-0.1c-0.7,0-1.3-0.1-2-0.1c0.1,0.8,0.1,1.6,0.1,2.4v1l-1.9,0.2l-0.3-0.8l-0.4,0.9l-0.3-0.2
		l-0.3,0.1l-0.8-0.2l0.1-0.9l-0.6-0.7l0-1.1l-0.5,1.2l0.3,0.5l-0.1,1l-1.4,0.3l-0.4-1.6l-0.8,1.6l-0.3-0.1l-0.5,0.1l-0.1-4.3
		c0-0.3,0-0.6,0-0.9c0-0.4,0-0.9,0-1.3l0.4-6.4c0-0.4,0-0.7,0-1c0-0.6,0.1-1.4,0.2-2.2c0.2-0.7,0.4-1.4,0.6-1.9
		c0.1-0.4,0.3-0.8,0.4-1.2l2.2-6.3l8-4.2l6.2,4l0.8,2.9l1.5,5.7c0.1,0.6,0.1,1.2,0.1,1.6c0,0.3,0,0.6,0,1l0.2,5.3
		c0,2.1-0.1,4.2-0.2,6.3C268.7,35.4,268.7,36.5,268.6,37.5z M250,33.8l0.3-0.8l0-1.9l-0.5,2.4L250,33.8z M256.4,30.8l0.3,0.2
		c0-0.1,0.1-0.2,0.1-0.3c0-0.1,0-0.3,0-0.4s0-0.2,0-0.3c0-0.1,0-0.2,0-0.2c0-0.1,0-0.1,0-0.1c0,0,0-0.1,0-0.1c0,0,0.1-0.1,0.1-0.2
		c0,0,0,0,0,0v0.1c0,0.1,0,0.1,0,0.2c0,0.1,0,0.2,0,0.2l0.1-0.3h0l0,0l0.1,0c0-0.2,0-0.4,0-0.5l0.1-0.1l0,0c0,0,0,0,0,0h0.1v0
		c0,0,0,0,0,0c0,0,0-0.1,0-0.1c0,0,0,0-0.1,0v-0.1v0c0,0,0-0.1,0-0.1v-0.1c0,0-0.1,0-0.1,0c0,0-0.1,0-0.1,0c0,0,0,0-0.1,0
		c0,0,0,0.1,0,0.1c0,0,0,0.1,0,0.1c0,0.1,0,0.1,0,0.1c0,0,0,0,0,0.1c0,0,0.1,0,0.1,0c0,0,0,0.1,0,0.1c0,0,0,0.1,0,0.1c0,0,0,0,0,0.1
		c0,0,0,0,0,0c0,0,0-0.1,0-0.1c0,0,0-0.1,0-0.1c0,0-0.1,0-0.1,0c0,0-0.1,0-0.1,0c0,0,0,0-0.1,0v-0.2v-0.1v0h0l0-0.1h0
		c0-0.1,0-0.1,0-0.1c0,0,0-0.1,0-0.1c0-0.2,0-0.3,0-0.4c0-0.1,0-0.2,0-0.3c0-0.1-0.1-0.2-0.1-0.2c-0.1-0.1-0.2-0.2-0.5-0.3
		c0-0.1,0.1-0.2,0.1-0.3c0-0.1,0-0.3,0-0.4s0-0.2,0-0.3c0-0.1,0-0.2,0-0.3l-0.1,1.3c0,0,0.1,0.1,0.1,0.1c0.1,0.1,0.2,0.1,0.3,0.2
		c0.1,0.1,0.1,0.2,0.1,0.3c0,0,0,0.2,0,0.4c0,0.2,0,0.5-0.1,0.7c0,0.3-0.1,0.5-0.1,0.7c0,0.2,0,0.4,0,0.4c-0.1,0.1-0.1,0.3-0.1,0.4
		c0,0,0,0.1,0,0.1c0,0.1,0,0.1,0.1,0.2L256.4,30.8C256.5,30.7,256.5,30.8,256.4,30.8C256.5,30.8,256.5,30.8,256.4,30.8z M256.7,25.2
		c0.7,0,1.4,0.1,2.2,0.1c0.7,0.1,1.4,0.1,2.1,0.1c0-0.9,0-1.7,0-2.6c0-0.9,0-1.7,0-2.6c0-0.6,0-1.4-0.1-2.4
		c-0.1-0.9-0.3-1.7-0.6-2.3l-2.2,2.1c-0.4,1.1-0.7,2.3-0.9,3.7S256.7,24.1,256.7,25.2z M261.1,34.7l0.3-0.8l-0.1-1.9l-0.5,2.4
		L261.1,34.7z"/>
	<path d="M293.1,40.3l-0.5-0.1l-0.4-0.4l-2.3-0.3l-0.1-0.7l-0.5,0.6L289,39l-0.3,0l-0.6-0.3l0.3-0.7l-0.3-0.8l0.2-0.9l-0.7,0.9
		l0.2,0.5l-0.3,0.8l-1.2,0v-1.4l-1.1,1.2l-0.1-0.1l0.4-2.7l0.8-5.5c0.1-0.7,0.1-1.2,0-1.7c0-0.4,0-0.8,0-1.2l0.2-5.8
		c0-0.7-0.1-1.5-0.2-2.3c0-0.4-0.1-0.8-0.1-1.1l-1.9-2.4l-1.3,0.3l-1.1,0.8c0,1.7,0,3.4,0,5.1c0,1.7,0,3.5,0,5.2
		c0,2.1,0,4.1,0.1,6.2c0,1.4,0.1,2.8,0.1,4.1c-2.8,0.1-5.5,0.1-8.3,0.2c-0.1-4.5-0.1-9.1-0.1-13.6c0-5.2,0-10.4,0.1-15.5l2-0.3
		l0.3,0.7l0.3-0.7l0.3,0.1l0.3-0.1l0.6,0.2L277.6,9l0.6,0.6l0,0.9l0.4-1.1l-0.3-0.4l0.1-0.8l1.2-0.3l0.4,1.3l0.7-1.3h0.2l0.1,0.1
		L281,8l1.1,0v1.1c1.8-0.6,3.5-0.9,5.1-0.9l6.4,5.2l0.8,6c0.1,0.4,0.1,0.8,0.2,1.2c0.1,0.5,0.2,1.1,0.2,1.9l-0.3,6
		c0,0.3,0,0.6,0,0.9c0,0.6,0,1.3-0.1,2.1l-0.9,5.9L293.1,40.3z M280,10.8l-0.2,0.6l0,1.6l0.4-2.1L280,10.8z M286.5,35.7l0.4-0.6
		l0.4-1.6l-1,1.9L286.5,35.7z"/>
	<path d="M339,18.3l-0.5-0.1l-2.1,1.1l-0.5-0.6l-0.1,0.8l-0.3,0l-0.2,0.1l-0.7,0l-0.1-0.7l-0.7-0.4l-0.2-0.9l-0.1,1.1l0.4,0.3
		l0.1,0.9l-1,0.6l-0.8-1.2l-0.2,1.5l-0.3,0l-0.3,0.4l-1.3-3l-2.2-2.1l-2.1,1.6l-1.1,2.5l7.2,2.8l7.2,6.8l-3.4,6.3
		c-0.2,0-0.6,0.1-1.4,0.3c-0.8,0.2-1.6,0.4-2.5,0.6c-0.9,0.2-1.7,0.4-2.4,0.6c-0.7,0.2-1.1,0.3-1.1,0.3c-0.3,0-0.6,0-0.8,0
		c-0.2,0-0.5,0-0.7-0.1c-0.2,0-0.4-0.1-0.6-0.1l-4.2-0.3c-0.5-0.1-1-0.2-1.4-0.3c-0.2,0-0.4-0.1-0.6-0.1l-4-1l0.6-0.1l-0.3-0.8
		l3.6,0.9l-3.2-1.3l1-0.8l-0.2-1.8l1.2-0.1l-1-0.6l0.8-1.7c0-0.1,0-0.2,0-0.3c0-0.2,0-0.4,0-0.7c0-0.2,0-0.4,0-0.4l3.9,1.1
		c0.3,0.1,0.5,0.1,0.7,0.2c0.4,0.1,0.8,0.2,1.2,0.3c0.4,0.1,0.7,0.1,1,0.1c0.3,0,0.6,0.1,1,0.1l4,0.5c0.1,0,0.2,0,0.2,0
		c0.1,0,0.1,0,0.2,0s0.1,0,0.2,0l0.4-0.3c-0.6-0.4-1.3-0.7-2-0.9c-0.2-0.1-0.4-0.1-0.7-0.2l-7.9-2.3l-4.3-6.2l3.4-8.6L328,8l7.2,3.5
		L339,18.3z M331.7,17.9l0-0.7l-0.6-1.5l0.2,2.1L331.7,17.9z"/>
	<path d="M353.7,38.2l-8.7-5.3l-2.6-10.3l3-10.8l10.3-4.2l7.5,4.1l2.2,8.7l-2.8,11.3L353.7,38.2z M353.4,31.6l2.8-4.7l0.6-4.1
		c0-0.3,0.1-0.6,0.1-0.8c0.1-0.3,0.1-0.7,0.1-1.2c0-0.7-0.1-1.4-0.2-2.2c0-0.2,0-0.4,0-0.6l-1.2-2.2l-4.5,2.3c0,0.2-0.1,0.4-0.1,0.8
		c-0.1,0.8-0.3,1.6-0.4,2.6c-0.1,0.9-0.2,1.6-0.2,1.9c0,0.3,0.1,0.9,0.2,1.8c0.1,0.9,0.3,1.7,0.4,2.4c0,0.3,0.1,0.5,0.1,0.6
		L353.4,31.6z"/>
	<path d="M385.9,28.4v0.3l1.3,1.9l-0.5,0.5h0.8v0.3l0.2,0.2l0.1,0.7l-0.7,0.2l-0.3,0.8l-0.8,0.4l1.1-0.1l0.2-0.5l0.8-0.2l0.8,0.9
		l-1.1,1h1.6v0.3l0.6,0.3c-0.1,0.1-0.3,0.1-0.5,0.2c-0.6,0.3-1.4,0.5-2.2,0.8c-0.8,0.3-1.5,0.5-1.9,0.6l-3.4,0.3l-1.7,0.1L371,34
		l-2.4-9.8l2.4-10.8l8.5-6l5.5,1.6l4.5,3.6l-1.2,1.1l0.6-1.1l-1.4,0.7c-0.1,0.1-0.2,0.4-0.3,0.7c-0.1,0.3-0.3,0.6-0.4,0.9
		c-0.1,0.3-0.2,0.5-0.3,0.6l-0.7-0.1l0.3,0.5l-1,0.9l-0.3-0.2l-0.8,0.1l-0.8-0.5l0.7,0.9l0.5,0l0.3,0.2l-1.2,1.2c0,0-0.1,0-0.1,0
		c-0.2-0.2-0.4-0.3-0.6-0.5c-0.4-0.4-0.8-0.7-1.2-1.1l-1.4-0.7l-0.7-0.4l-2.4,4.4l-0.5,3.8c0,0.3-0.1,0.5-0.1,0.7
		c-0.1,0.3-0.1,0.7-0.1,1.2c0,0,0,0.2,0,0.4c0,0.2,0.1,0.5,0.1,0.7c0.1,0.3,0.1,0.6,0.2,0.9c0,0.3,0.1,0.5,0.1,0.6
		c0,0.2,0.1,0.3,0.1,0.4c0,0,0.2,0,0.4,0.1c0.2,0.1,0.5,0.1,0.8,0.2c0.3,0.1,0.6,0.1,0.8,0.2c0.3,0.1,0.6,0.2,0.9,0.3
		c0.4,0,0.9,0,1.5,0c0.6,0,1.2-0.1,1.5-0.1c0.6-0.1,1.2-0.3,1.8-0.5C385.2,28.6,385.6,28.5,385.9,28.4z M386.6,35.6l-0.7,0.1
		l-1.4,0.8l2-0.5L386.6,35.6z"/>
	<path d="M402.1,37.2c-0.3,0-0.6,0-1,0c-0.5,0-1.1,0-1.6,0c-0.6,0.1-1.3,0.2-2,0.4c-0.3,0.1-0.5,0.1-0.8,0.2l-2.5-0.4
		c0-0.1,0-0.2,0-0.4c-0.1-0.6-0.2-1.3-0.3-2.1c-0.1-0.8-0.2-1.4-0.2-1.8c0-0.7,0.1-1.5,0.2-2.2c0.2-0.8,0.2-1.5,0.2-2.2
		c0-0.7-0.1-1.5-0.2-2.2c-0.2-0.8-0.3-1.5-0.3-2.2c0-0.9,0.1-1.8,0.3-2.7c0.2-0.9,0.2-1.8,0.2-2.7c0-0.9-0.1-1.8-0.2-2.7
		c-0.2-0.9-0.2-1.8-0.2-2.7c0-0.4,0-0.8,0.1-1.4c0.1-0.6,0.1-1.1,0.2-1.8c0.1-0.7,0.2-1.4,0.2-1.9l2.1-0.3l0.2,0.7l0.3-0.7l0.3,0.1
		l0.3-0.1l0.7,0.1L398,9l0.5,0.6v0.9l0.4-1l-0.3-0.4l0.1-0.9l0.5-0.1l0.3,0.1l0.4-0.1l0.3,1.2L401,8c0.1,0,0.1,0,0.2,0s0.1,0,0.2,0
		c0.1-0.1,0.2-0.1,0.4-0.1c0.2,0,0.3,0,0.5-0.1c0.2,0,0.3,0,0.3,0l-0.4,6.7c0,0.3,0,0.6,0,0.9c-0.1,0.4-0.1,0.8-0.1,1.2
		c0,0.4,0,0.8,0,1.3c0,1.6,0.1,3.3,0.2,4.9c0.1,1.6,0.2,3.3,0.2,4.9c0,2.4,0,4.8-0.1,7.2C402.2,35.6,402.2,36.4,402.1,37.2z
		 M400.4,10.8l-0.3,0.7l0.1,1.6l0.4-2.1L400.4,10.8z"/>
	<path d="M423.7,16c-5.7,0-11.4,0.1-17.1,0.2c0.1-0.9,0.1-1.7,0-2.6c0-0.3,0-0.6,0-0.9c0-0.6,0.1-1.3,0.1-1.9
		c0.1-0.9,0.1-1.9,0.1-2.8c1.9,0,3.8,0,5.6,0c2.8-0.1,5.7-0.1,8.5-0.1h2.8V8l-0.4,0.6l0.3,2.3l-0.7,0.2l0.7,0.3l-0.1,0.3l0,0.2
		l-0.1,0.7l-0.8-0.1l-0.6,0.6h-0.9l1,0.4l0.4-0.3l0.9,0.1c0,0,0,0.1,0,0.2c0,0.1,0.1,0.2,0.1,0.4c0,0.1,0,0.2,0,0.3v0.2l-1.2,0.4
		l1.2,0.6V16z M424.5,28.4c0,0.2,0,0.3,0,0.4c0,0.2-0.1,0.4-0.1,0.6c0,0.2,0,0.3,0,0.4l0.7,1.8l-1.1,0.5l1.2,0.2l-0.4,1.8l0.9,1
		l-3.3,1l3.6-0.6l-0.3,0.8l0.5,0.1v0c-0.6,0.1-1.2,0.1-1.8,0.2c-1.1,0.2-2.1,0.3-3.1,0.4c-0.5,0-1.1,0-1.7,0c-0.4,0-0.7,0-1.1,0
		c-0.8,0.1-1.5,0.1-2.3,0.1c-0.2,0-0.4,0-0.6,0c-0.2,0-0.4,0-0.6,0c-0.3,0-0.6,0-1,0c-0.6,0-1.2,0-1.6-0.1c-0.1,0-0.3-0.1-0.5-0.1
		c-0.2-0.1-0.3-0.1-0.5-0.2c-0.1,0-0.1-0.1-0.2-0.1c-0.6-0.2-1.3-0.4-1.9-0.6c-0.1-0.1-0.3-0.1-0.4-0.1c-0.2-0.9-0.4-1.8-0.6-2.7
		c-0.2-0.9-0.4-1.8-0.6-2.7c-0.1-0.3-0.1-0.6-0.2-1c-0.2-0.6-0.3-1.2-0.4-1.7c-0.1-1-0.1-2.1-0.1-3.3c0-0.3,0-0.5,0-0.7
		c0-0.8,0-1.5,0-2.3c-0.1-1.5-0.1-3-0.1-4.6v-0.2l0.7,0.5l2.3-0.3l0.2,0.7l0.4-0.7l0.3,0.1l0.2-0.1l0.7,0.1l-0.1,0.8l0.5,0.6v0.9
		l0.4-1.1l-0.3-0.4l0.1-0.8l1.2-0.3l0.4,1.3l0.7-1.4l0.2,0.1c0,0.2,0,0.3,0,0.5c0,0.2,0,0.4,0,0.5c0,0.6,0,1.2,0,1.8l9.2-0.3
		c0.1,1.2,0.1,2.4,0.2,3.6c0,1.2,0.1,2.4,0.1,3.6c-1.6,0.1-3.1,0.1-4.7,0.1c-1.6,0.1-3.1,0.1-4.7,0.2v0.3c0,0.4,0.1,0.8,0.3,1.1
		c0.1,0.2,0.2,0.5,0.2,0.7c0.2,0,0.4,0.1,0.7,0.1c0.4,0.1,0.7,0.1,1.1,0.1C419.4,29.1,421.9,28.9,424.5,28.4z M413.7,19.5l-0.3,0.6
		l0.1,1.6l0.4-2.1L413.7,19.5z M421,15.1l-0.7-0.2l-1.6,0.1l2.1,0.4L421,15.1z"/>
	<path d="M442.5,16.3l0.8-0.6l-9.1,0.3c-0.1,0-0.2,0-0.3,0c-0.1,0-0.2,0-0.3,0l0,0l-1.5,0.3l-1.9-0.4l-2,0.4c0-0.4,0.1-0.7,0.1-1.1
		c0.1-0.6,0.2-1.2,0.2-1.8c0-0.4-0.1-0.9-0.2-1.4c-0.2-0.5-0.2-0.9-0.2-1.3c0-0.5,0.1-1.1,0.2-1.7c0.1-0.3,0.1-0.6,0.1-0.9l4.3-0.2
		c0.3,0,0.6,0,0.9,0c0.4-0.1,0.8-0.1,1.3-0.1c1.1,0,2.2,0.1,3.4,0.2c1.1,0.1,2.2,0.2,3.3,0.2c0.5,0,1,0,1.4-0.1c0.3,0,0.5,0,0.9,0
		l4.6-0.2c0,0.3-0.1,0.6-0.1,1c-0.2,0.8-0.2,1.4-0.2,1.9c0,0.4,0.1,0.9,0.2,1.3c0.1,0.5,0.2,0.9,0.2,1.4c0,0.4-0.1,1-0.2,1.6
		c-0.1,0.4-0.1,0.7-0.1,0.9l-1.9,0.4l-2-0.5L442.5,16.3z M442.2,37.4l-2.7,0.4l-0.2-0.7l-0.3,0.7l-0.3,0l0,0l0,0l-0.9-0.1l0.1-0.7
		l-0.5-0.6l0-0.9l-0.4,1l0.3,0.4l-0.1,0.7l-0.1,0l-1.1,0.2l-0.3-1.1l-0.6,1.2c-0.2,0-0.3,0-0.4,0c-0.2,0-0.3,0-0.5,0
		c0-0.8,0.1-1.6,0.1-2.4c0.1-1.7,0.2-3.3,0.2-4.9c0-1.2-0.1-2.4-0.2-3.6c-0.2-1.2-0.2-2.4-0.2-3.6c0-1.4,0.1-2.9,0.2-4.4
		c0.1-0.9,0.1-1.7,0.1-2.5l0.7,0.5l2.3-0.4l0.3,0.7l0.3-0.7l0.3,0.1l0.3,0l0.7,0.1l-0.1,0.8l0.5,0.6v0.9l0.4-1.1l-0.3-0.4l0.1-0.8
		l1.2-0.3l0.4,1.3l0.7-1.4l0.3,0.1l0.2-0.1l-0.2,4.6c0,0.4,0,0.7,0,0.9c-0.1,0.4-0.1,0.8-0.1,1.4c0,1.2,0.1,2.4,0.3,3.6
		c0.2,1.2,0.2,2.4,0.2,3.6c0,1.5-0.1,3.1-0.2,4.7C442.3,35.9,442.3,36.6,442.2,37.4z M435.5,35l0.2-0.6l0-1.6l-0.4,2.1L435.5,35z
		 M441.3,19.3l-0.2,0.7l0.1,1.6l0.4-2L441.3,19.3z"/>
	<path d="M462.7,40.2l-0.8-0.5l-0.4-0.5c-0.1,0-0.2-0.1-0.3-0.1c-0.2-0.1-0.4-0.2-0.6-0.3c-0.2-0.1-0.4-0.2-0.6-0.3
		c-0.2-0.1-0.3-0.1-0.3-0.2l0.4-1.1l-1,0.7l-1-1.5l-1.2,0l1.6-3l-2.1,2.9l0,0l-0.3-0.7l-0.3,0.2c1-1.7,2-3.4,2.8-5.1L453,22
		l-1.4-10.4c0-0.4,0-0.9,0-1.5c0-0.6,0.1-1.1,0.1-1.6l0.6,0.4l2.3-0.3l0.3,0.7l0.3-0.7l0.3,0.1l0.3-0.1l0.7,0.2l-0.1,0.8l0.5,0.6
		l0,0.9l0.4-1.1l-0.3-0.4l0.1-0.8l0.8-0.2l0.4,0l0.3,1.2l0.6-1.2l0.8,0c-0.1,0.5-0.1,1-0.1,1.5c0,1.2,0,2.5,0.1,3.8
		c0,0.4,0.1,0.8,0.1,1.2c0,0.2,0,0.4,0,0.6c0,0.4,0,0.8,0.1,1.2l1.2,3.4l0.6,1.7l1.2-4.6c0.1-0.3,0.2-0.5,0.2-0.8
		c0.1-0.4,0.3-0.9,0.4-1.5l0.6-4.7l0.3-2.4l8.3,0.3l-2.3,10.9c-0.1,0.7-0.2,1.4-0.3,2c-0.1,1-0.4,2.2-0.8,3.5L465,35.1L462.7,40.2z
		 M458.7,11.4l-0.2,0.6l0,1.6l0.4-2.1L458.7,11.4z"/>
</g>
<g>
	<linearGradient id="SVGID_1_" gradientUnits="userSpaceOnUse" x1="18.1838" y1="35.3528" x2="18.1838" y2="5.3528">
		<stop  offset="0" style="stop-color:#FFED00"/>
		<stop  offset="0.1363" style="stop-color:#FFEA00"/>
		<stop  offset="0.2633" style="stop-color:#FFE300"/>
		<stop  offset="0.3867" style="stop-color:#FFD700"/>
		<stop  offset="0.5078" style="stop-color:#FDC600"/>
		<stop  offset="0.6273" style="stop-color:#F8AE00"/>
		<stop  offset="0.7456" style="stop-color:#F18D00"/>
		<stop  offset="0.8629" style="stop-color:#EA620E"/>
		<stop  offset="0.9767" style="stop-color:#E32119"/>
		<stop  offset="1" style="stop-color:#E2001A"/>
	</linearGradient>
	<path class="st0" d="M29.7,15.7l-0.5-0.1l-2.1,1.1L26.6,16l-0.1,0.8l-0.3,0L26,16.9l-0.7,0l-0.1-0.7l-0.7-0.4l-0.2-0.9L24.1,16
		l0.4,0.3l0.1,0.9l-1,0.6l-0.8-1.2l-0.2,1.5l-0.3,0L22,18.6l-1.3-3l-2.2-2.1L16.4,15l-1.1,2.5l7.2,2.8l7.2,6.8l-3.4,6.3
		c-0.2,0-0.6,0.1-1.4,0.3c-0.8,0.2-1.6,0.4-2.5,0.6c-0.9,0.2-1.7,0.4-2.4,0.6c-0.7,0.2-1.1,0.3-1.1,0.3c-0.3,0-0.6,0-0.8,0
		c-0.2,0-0.5,0-0.7-0.1c-0.2,0-0.4-0.1-0.6-0.1l-4.2-0.3c-0.5-0.1-1-0.2-1.4-0.3c-0.2,0-0.4-0.1-0.6-0.1l-4-1l0.6-0.1L7,32.5
		l3.6,0.9l-3.2-1.3l1-0.8l-0.2-1.8l1.2-0.1l-1-0.6L9.1,27c0-0.1,0-0.2,0-0.3c0-0.2,0-0.4,0-0.7c0-0.2,0-0.4,0-0.4l3.9,1.1
		c0.3,0.1,0.5,0.1,0.7,0.2c0.4,0.1,0.8,0.2,1.2,0.3c0.4,0.1,0.7,0.1,1,0.1c0.3,0,0.6,0.1,1,0.1l4,0.5c0.1,0,0.2,0,0.2,0
		c0.1,0,0.1,0,0.2,0c0.1,0,0.1,0,0.2,0l0.4-0.3c-0.6-0.4-1.3-0.7-2-0.9c-0.2-0.1-0.4-0.1-0.7-0.2l-7.9-2.3l-4.3-6.2l3.4-8.6l8.2-4.1
		l7.2,3.5L29.7,15.7z M22.3,15.2l0-0.7L21.8,13l0.2,2.1L22.3,15.2z"/>
	
		<linearGradient id="SVGID_00000041976566700206673520000002724944845753242045_" gradientUnits="userSpaceOnUse" x1="43.8508" y1="35.2567" x2="43.8508" y2="4.8729">
		<stop  offset="0" style="stop-color:#FFED00"/>
		<stop  offset="0.1363" style="stop-color:#FFEA00"/>
		<stop  offset="0.2633" style="stop-color:#FFE300"/>
		<stop  offset="0.3867" style="stop-color:#FFD700"/>
		<stop  offset="0.5078" style="stop-color:#FDC600"/>
		<stop  offset="0.6273" style="stop-color:#F8AE00"/>
		<stop  offset="0.7456" style="stop-color:#F18D00"/>
		<stop  offset="0.8629" style="stop-color:#EA620E"/>
		<stop  offset="0.9767" style="stop-color:#E32119"/>
		<stop  offset="1" style="stop-color:#E2001A"/>
	</linearGradient>
	<path style="fill:url(#SVGID_00000041976566700206673520000002724944845753242045_);stroke:#E2001A;stroke-miterlimit:10;" d="
		M53.9,34.9l-2.7,0.4l-0.3-0.8l-0.4,0.8l-0.3-0.1l-0.3,0.1L49,35l0.1-0.9l-0.6-0.7v-1.1l-0.5,1.2l0.4,0.5l-0.1,1c-0.1,0-0.2,0-0.3,0
		c-0.1,0-0.2,0.1-0.3,0.1c-0.1,0-0.3,0-0.4,0c-0.1,0-0.3,0-0.4,0l-0.4-1.3l-0.7,1.3h-0.2c0.1-1,0.1-2,0.1-3.1c0-0.3,0-0.7,0-1
		c-0.7,0-1.3-0.1-2-0.1c-0.7,0-1.3-0.1-2-0.1c0.1,0.8,0.1,1.6,0.1,2.4v1L40,34.4l-0.3-0.8l-0.4,0.9L39,34.3l-0.3,0.1l-0.8-0.2
		l0.1-0.9l-0.6-0.7l0-1.1L37,32.7l0.3,0.5l-0.1,1l-1.4,0.3L35.3,33l-0.8,1.6l-0.3-0.1l-0.5,0.1l-0.1-4.3c0-0.3,0-0.6,0-0.9
		c0-0.4,0-0.9,0-1.3l0.4-6.4c0-0.4,0-0.7,0-1c0-0.6,0.1-1.4,0.2-2.2c0.2-0.7,0.4-1.4,0.6-1.9c0.1-0.4,0.3-0.8,0.4-1.2l2.2-6.3l8-4.2
		l6.2,4l0.8,2.9l1.5,5.7c0.1,0.6,0.1,1.2,0.1,1.6c0,0.3,0,0.6,0,1l0.2,5.3c0,2.1-0.1,4.2-0.2,6.3C54,32.8,53.9,33.8,53.9,34.9z
		 M35.2,31.2l0.3-0.8l0-1.9l-0.5,2.4L35.2,31.2z M41.7,28.2l0.3,0.2c0-0.1,0.1-0.2,0.1-0.3s0-0.3,0-0.4c0-0.1,0-0.2,0-0.3
		c0-0.1,0-0.2,0-0.2c0-0.1,0-0.1,0-0.1c0,0,0-0.1,0-0.1c0,0,0.1-0.1,0.1-0.2c0,0,0,0,0,0v0.1c0,0.1,0,0.1,0,0.2c0,0.1,0,0.2,0,0.2
		l0.1-0.3h0l0,0l0.1,0c0-0.2,0-0.4,0-0.5l0.1-0.1l0,0c0,0,0,0,0,0h0.1v0c0,0,0,0,0,0c0,0,0-0.1,0-0.1c0,0,0,0-0.1,0V26v0
		c0,0,0-0.1,0-0.1v-0.1c0,0-0.1,0-0.1,0c0,0-0.1,0-0.1,0c0,0,0,0-0.1,0c0,0,0,0.1,0,0.1c0,0,0,0.1,0,0.1c0,0.1,0,0.1,0,0.1
		c0,0,0,0,0,0.1c0,0,0.1,0,0.1,0c0,0,0,0.1,0,0.1c0,0,0,0.1,0,0.1c0,0,0,0,0,0.1c0,0,0,0,0,0c0,0,0-0.1,0-0.1c0,0,0-0.1,0-0.1
		c0,0-0.1,0-0.1,0c0,0-0.1,0-0.1,0s0,0-0.1,0v-0.2V26v0h0l0-0.1h0c0-0.1,0-0.1,0-0.1c0,0,0-0.1,0-0.1c0-0.2,0-0.3,0-0.4
		c0-0.1,0-0.2,0-0.3c0-0.1-0.1-0.2-0.1-0.2c-0.1-0.1-0.2-0.2-0.5-0.3c0-0.1,0.1-0.2,0.1-0.3c0-0.1,0-0.3,0-0.4s0-0.2,0-0.3
		c0-0.1,0-0.2,0-0.3l-0.1,1.3c0,0,0.1,0.1,0.1,0.1c0.1,0.1,0.2,0.1,0.3,0.2c0.1,0.1,0.1,0.2,0.1,0.3c0,0,0,0.2,0,0.4
		c0,0.2,0,0.5-0.1,0.7c0,0.3-0.1,0.5-0.1,0.7c0,0.2,0,0.4,0,0.4c-0.1,0.1-0.1,0.3-0.1,0.4c0,0,0,0.1,0,0.1c0,0.1,0,0.1,0.1,0.2
		L41.7,28.2C41.8,28.1,41.8,28.2,41.7,28.2C41.8,28.2,41.7,28.2,41.7,28.2z M41.9,22.6c0.7,0,1.4,0.1,2.2,0.1
		c0.7,0.1,1.4,0.1,2.1,0.1c0-0.9,0-1.7,0-2.6c0-0.9,0-1.7,0-2.6c0-0.6,0-1.4-0.1-2.4c-0.1-0.9-0.3-1.7-0.6-2.3l-2.2,2.1
		c-0.4,1.1-0.7,2.3-0.9,3.7C42.2,20.2,42,21.5,41.9,22.6z M46.4,32l0.3-0.8l-0.1-1.9l-0.5,2.4L46.4,32z"/>
	
		<linearGradient id="SVGID_00000166674455324241293460000015894900635288761482_" gradientUnits="userSpaceOnUse" x1="67.3352" y1="35.7366" x2="67.3352" y2="5.2567">
		<stop  offset="0" style="stop-color:#FFED00"/>
		<stop  offset="0.1363" style="stop-color:#FFEA00"/>
		<stop  offset="0.2633" style="stop-color:#FFE300"/>
		<stop  offset="0.3867" style="stop-color:#FFD700"/>
		<stop  offset="0.5078" style="stop-color:#FDC600"/>
		<stop  offset="0.6273" style="stop-color:#F8AE00"/>
		<stop  offset="0.7456" style="stop-color:#F18D00"/>
		<stop  offset="0.8629" style="stop-color:#EA620E"/>
		<stop  offset="0.9767" style="stop-color:#E32119"/>
		<stop  offset="1" style="stop-color:#E2001A"/>
	</linearGradient>
	<path style="fill:url(#SVGID_00000166674455324241293460000015894900635288761482_);stroke:#E2001A;stroke-miterlimit:10;" d="
		M69.3,34.9l-1.6,0.2l-0.2-0.7L67,35.1L66.7,35l-0.2,0.1l-0.7-0.1l0.1-0.8l-0.5-0.6v-0.9l-0.4,1l0.3,0.4l-0.1,0.9l-1.3-0.3l-0.2-0.8
		l-0.3,0.7l-1.8-0.4c-0.5-3-1-6.1-1.5-9.2c-0.5-3.1-1.1-6.1-1.6-9.2c-0.1-0.7-0.3-1.4-0.4-2.2c-0.2-1-0.4-2-0.5-2.9
		c-0.2-1.1-0.3-2.2-0.4-3.4c-0.1-0.6-0.1-1.1-0.2-1.7c0.1,0,0.2-0.1,0.3-0.1c0.1,0,0.2,0,0.3,0h1.7L59.3,6l0.2-0.5h1.3l-0.1,0.8
		l0.6,0.6l0,0.9l0.4-1l-0.3-0.5l0.1-0.8h1.2l0.3,1.1l0.5-1.1H65c0.5,4.5,1.2,9,2.2,13.5l0.6-2.3l1.2-4.5c0.1-0.5,0.1-1,0.1-1.4
		c0-0.3,0.1-0.5,0.1-0.9l0.5-4.6c2.8,0,5.5,0,8.2-0.1v0.3c0,0.1,0,0.1,0,0.1c0,0,0,0.1,0,0.1L76,16.1c-0.1,0.6-0.2,1.2-0.2,1.8
		c-0.1,1-0.3,2.2-0.7,3.4c-0.4,1.1-0.8,2.1-1.2,3c-0.2,0.4-0.5,1-0.7,1.5L69.3,34.9z M63.2,8l-0.2,0.7l0,1.6l0.4-2L63.2,8z
		 M63.5,32.3l0.3-0.6l-0.1-1.6l-0.4,2.1L63.5,32.3z M68.9,35.7l-0.1,0L68.9,35.7L68.9,35.7z"/>
	
		<linearGradient id="SVGID_00000112611833599542546370000016365626211290508673_" gradientUnits="userSpaceOnUse" x1="90.4592" y1="35.2567" x2="90.4592" y2="4.8729">
		<stop  offset="0" style="stop-color:#FFED00"/>
		<stop  offset="0.1363" style="stop-color:#FFEA00"/>
		<stop  offset="0.2633" style="stop-color:#FFE300"/>
		<stop  offset="0.3867" style="stop-color:#FFD700"/>
		<stop  offset="0.5078" style="stop-color:#FDC600"/>
		<stop  offset="0.6273" style="stop-color:#F8AE00"/>
		<stop  offset="0.7456" style="stop-color:#F18D00"/>
		<stop  offset="0.8629" style="stop-color:#EA620E"/>
		<stop  offset="0.9767" style="stop-color:#E32119"/>
		<stop  offset="1" style="stop-color:#E2001A"/>
	</linearGradient>
	<path style="fill:url(#SVGID_00000112611833599542546370000016365626211290508673_);stroke:#E2001A;stroke-miterlimit:10;" d="
		M100.5,34.9l-2.7,0.4l-0.3-0.8l-0.4,0.8l-0.3-0.1l-0.3,0.1L95.7,35l0.1-0.9l-0.6-0.7v-1.1l-0.5,1.2l0.4,0.5l-0.1,1
		c-0.1,0-0.2,0-0.3,0c-0.1,0-0.2,0.1-0.3,0.1c-0.1,0-0.3,0-0.4,0c-0.1,0-0.3,0-0.4,0l-0.4-1.3l-0.7,1.3h-0.2c0.1-1,0.1-2,0.1-3.1
		c0-0.3,0-0.7,0-1c-0.7,0-1.3-0.1-2-0.1c-0.7,0-1.3-0.1-2-0.1c0.1,0.8,0.1,1.6,0.1,2.4v1l-1.9,0.2l-0.3-0.8L86,34.5l-0.3-0.2
		l-0.3,0.1l-0.8-0.2l0.1-0.9L84,32.6l0-1.1l-0.5,1.2l0.3,0.5l-0.1,1l-1.4,0.3L81.9,33l-0.8,1.6l-0.3-0.1l-0.5,0.1l-0.1-4.3
		c0-0.3,0-0.6,0-0.9c0-0.4,0-0.9,0-1.3l0.4-6.4c0-0.4,0-0.7,0-1c0-0.6,0.1-1.4,0.2-2.2c0.2-0.7,0.4-1.4,0.6-1.9
		c0.1-0.4,0.3-0.8,0.4-1.2L84,9.1l8-4.2l6.2,4l0.8,2.9l1.5,5.7c0.1,0.6,0.1,1.2,0.1,1.6c0,0.3,0,0.6,0,1l0.2,5.3
		c0,2.1-0.1,4.2-0.2,6.3C100.6,32.8,100.5,33.8,100.5,34.9z M81.8,31.2l0.3-0.8l0-1.9l-0.5,2.4L81.8,31.2z M88.3,28.2l0.3,0.2
		c0-0.1,0.1-0.2,0.1-0.3s0-0.3,0-0.4c0-0.1,0-0.2,0-0.3c0-0.1,0-0.2,0-0.2c0-0.1,0-0.1,0-0.1c0,0,0-0.1,0-0.1c0,0,0.1-0.1,0.1-0.2
		c0,0,0,0,0,0v0.1c0,0.1,0,0.1,0,0.2c0,0.1,0,0.2,0,0.2l0.1-0.3h0l0,0l0.1,0c0-0.2,0-0.4,0-0.5l0.1-0.1l0,0c0,0,0,0,0,0h0.1v0
		c0,0,0,0,0,0c0,0,0-0.1,0-0.1c0,0,0,0-0.1,0V26v0c0,0,0-0.1,0-0.1v-0.1c0,0-0.1,0-0.1,0c0,0-0.1,0-0.1,0c0,0,0,0-0.1,0
		c0,0,0,0.1,0,0.1c0,0,0,0.1,0,0.1c0,0.1,0,0.1,0,0.1c0,0,0,0,0,0.1c0,0,0.1,0,0.1,0c0,0,0,0.1,0,0.1c0,0,0,0.1,0,0.1c0,0,0,0,0,0.1
		c0,0,0,0,0,0c0,0,0-0.1,0-0.1c0,0,0-0.1,0-0.1c0,0-0.1,0-0.1,0c0,0-0.1,0-0.1,0s0,0-0.1,0v-0.2V26v0h0l0-0.1h0c0-0.1,0-0.1,0-0.1
		c0,0,0-0.1,0-0.1c0-0.2,0-0.3,0-0.4c0-0.1,0-0.2,0-0.3c0-0.1-0.1-0.2-0.1-0.2c-0.1-0.1-0.2-0.2-0.5-0.3c0-0.1,0.1-0.2,0.1-0.3
		c0-0.1,0-0.3,0-0.4s0-0.2,0-0.3c0-0.1,0-0.2,0-0.3l-0.1,1.3c0,0,0.1,0.1,0.1,0.1c0.1,0.1,0.2,0.1,0.3,0.2c0.1,0.1,0.1,0.2,0.1,0.3
		c0,0,0,0.2,0,0.4c0,0.2,0,0.5-0.1,0.7c0,0.3-0.1,0.5-0.1,0.7c0,0.2,0,0.4,0,0.4c-0.1,0.1-0.1,0.3-0.1,0.4c0,0,0,0.1,0,0.1
		c0,0.1,0,0.1,0.1,0.2L88.3,28.2C88.4,28.1,88.4,28.2,88.3,28.2C88.4,28.2,88.3,28.2,88.3,28.2z M88.6,22.6c0.7,0,1.4,0.1,2.2,0.1
		c0.7,0.1,1.4,0.1,2.1,0.1c0-0.9,0-1.7,0-2.6c0-0.9,0-1.7,0-2.6c0-0.6,0-1.4-0.1-2.4c-0.1-0.9-0.3-1.7-0.6-2.3L90,15.1
		c-0.4,1.1-0.7,2.3-0.9,3.7C88.8,20.2,88.6,21.5,88.6,22.6z M93,32l0.3-0.8l-0.1-1.9l-0.5,2.4L93,32z"/>
	
		<linearGradient id="SVGID_00000177484764316305316850000005618983843505918605_" gradientUnits="userSpaceOnUse" x1="115.5991" y1="35.0169" x2="115.5991" y2="4.9207">
		<stop  offset="0" style="stop-color:#FFED00"/>
		<stop  offset="0.1363" style="stop-color:#FFEA00"/>
		<stop  offset="0.2633" style="stop-color:#FFE300"/>
		<stop  offset="0.3867" style="stop-color:#FFD700"/>
		<stop  offset="0.5078" style="stop-color:#FDC600"/>
		<stop  offset="0.6273" style="stop-color:#F8AE00"/>
		<stop  offset="0.7456" style="stop-color:#F18D00"/>
		<stop  offset="0.8629" style="stop-color:#EA620E"/>
		<stop  offset="0.9767" style="stop-color:#E32119"/>
		<stop  offset="1" style="stop-color:#E2001A"/>
	</linearGradient>
	<path style="fill:url(#SVGID_00000177484764316305316850000005618983843505918605_);stroke:#E2001A;stroke-miterlimit:10;" d="
		M126.2,20.6c0,3.7,0,7.5,0,11.3c-0.3,0.1-0.7,0.4-1.4,0.8c-0.7,0.4-1.3,0.7-1.9,1c-0.6,0.3-1,0.5-1.2,0.6c-0.1,0-0.5,0.1-1,0.2
		c-0.5,0.1-1.1,0.2-1.8,0.3c-0.6,0.1-1.2,0.2-1.7,0.2c-0.3,0-0.4,0.1-0.6,0.1l-9.2-3.2l-2.5-9.4l2.4-11.3l8.8-6.2l5.4,1.6l4.4,3.6
		c-2,1.9-4,3.7-6,5.6l-1.5-1.8l-2-1l-2.8,4.7l-0.8,6.2l0.7,3.1l3.1,0.6c0.2,0,0.3,0,0.4,0c0.2,0,0.4,0,0.6,0c0.2,0,0.3,0,0.3,0
		c0-2.2,0-4.4,0-6.6l0.5,0.4l2.3-0.3l0.3,0.7l0.3-0.7l0.3,0.1l0.3-0.1l0.7,0.2l-0.1,0.8l0.5,0.6l0,0.9l0.4-1.1l-0.3-0.4l0.1-0.8
		l1.2-0.3l0.3,1.3l0.7-1.4l0.3,0.1L126.2,20.6L126.2,20.6z M124.9,23.5l-0.2,0.6l0,1.6l0.4-2.1L124.9,23.5z"/>
	
		<linearGradient id="SVGID_00000036958792851859183310000001323594066480813953_" gradientUnits="userSpaceOnUse" x1="140.4629" y1="34.5848" x2="140.4629" y2="5.2567">
		<stop  offset="0" style="stop-color:#FFED00"/>
		<stop  offset="0.1363" style="stop-color:#FFEA00"/>
		<stop  offset="0.2633" style="stop-color:#FFE300"/>
		<stop  offset="0.3867" style="stop-color:#FFD700"/>
		<stop  offset="0.5078" style="stop-color:#FDC600"/>
		<stop  offset="0.6273" style="stop-color:#F8AE00"/>
		<stop  offset="0.7456" style="stop-color:#F18D00"/>
		<stop  offset="0.8629" style="stop-color:#EA620E"/>
		<stop  offset="0.9767" style="stop-color:#E32119"/>
		<stop  offset="1" style="stop-color:#E2001A"/>
	</linearGradient>
	<path style="fill:url(#SVGID_00000036958792851859183310000001323594066480813953_);stroke:#E2001A;stroke-miterlimit:10;" d="
		M147.9,13.4c-5.7,0-11.4,0.1-17.1,0.2c0.1-0.9,0.1-1.7,0-2.6c0-0.3,0-0.6,0-0.9c0-0.6,0.1-1.3,0.1-1.9c0.1-0.9,0.1-1.9,0.1-2.8
		c1.9,0,3.8,0,5.6,0c2.8-0.1,5.7-0.1,8.5-0.1h2.8v0.1L147.5,6l0.3,2.3l-0.7,0.2l0.7,0.3l-0.1,0.3l0,0.2l-0.1,0.7l-0.8-0.1l-0.6,0.6
		h-0.9l1,0.4l0.4-0.3l0.9,0.1c0,0,0,0.1,0,0.2c0,0.1,0.1,0.2,0.1,0.4c0,0.1,0,0.2,0,0.3v0.2l-1.2,0.4l1.2,0.6V13.4z M148.6,25.8
		c0,0.2,0,0.3,0,0.4c0,0.2-0.1,0.4-0.1,0.6c0,0.2,0,0.3,0,0.4l0.7,1.8l-1.1,0.5l1.2,0.2l-0.4,1.8l0.9,1l-3.3,1l3.6-0.6l-0.3,0.8
		l0.5,0.1v0c-0.6,0.1-1.2,0.1-1.8,0.2c-1.1,0.2-2.1,0.3-3.1,0.4c-0.5,0-1.1,0-1.7,0c-0.4,0-0.7,0-1.1,0c-0.8,0.1-1.5,0.1-2.3,0.1
		c-0.2,0-0.4,0-0.6,0c-0.2,0-0.4,0-0.6,0c-0.3,0-0.6,0-1,0c-0.6,0-1.2,0-1.6-0.1c-0.1,0-0.3-0.1-0.5-0.1c-0.2-0.1-0.3-0.1-0.5-0.2
		c-0.1,0-0.1-0.1-0.2-0.1c-0.6-0.2-1.3-0.4-1.9-0.6c-0.1-0.1-0.3-0.1-0.4-0.1c-0.2-0.9-0.4-1.8-0.6-2.7c-0.2-0.9-0.4-1.8-0.6-2.7
		c-0.1-0.3-0.1-0.6-0.2-1c-0.2-0.6-0.3-1.2-0.4-1.7c-0.1-1-0.1-2.1-0.1-3.3c0-0.3,0-0.5,0-0.7c0-0.8,0-1.5,0-2.3
		c-0.1-1.5-0.1-3-0.1-4.6V14l0.7,0.5l2.3-0.3l0.2,0.7l0.4-0.7l0.3,0.1l0.2-0.1l0.7,0.1l-0.1,0.8l0.5,0.6v0.9l0.4-1.1l-0.3-0.4
		l0.1-0.8l1.2-0.3l0.4,1.3l0.7-1.4l0.2,0.1c0,0.2,0,0.3,0,0.5c0,0.2,0,0.4,0,0.5c0,0.6,0,1.2,0,1.8l9.2-0.3c0.1,1.2,0.1,2.4,0.2,3.6
		c0,1.2,0.1,2.4,0.1,3.6c-1.6,0.1-3.1,0.1-4.7,0.1c-1.6,0.1-3.1,0.1-4.7,0.2v0.3c0,0.4,0.1,0.8,0.3,1.1c0.1,0.2,0.2,0.5,0.2,0.7
		c0.2,0,0.4,0.1,0.7,0.1c0.4,0.1,0.7,0.1,1.1,0.1C143.5,26.5,146.1,26.3,148.6,25.8z M137.9,16.9l-0.3,0.6l0.1,1.6l0.4-2.1
		L137.9,16.9z M145.1,12.5l-0.7-0.2l-1.6,0.1l2.1,0.4L145.1,12.5z"/>
</g>
<g>
	
		<linearGradient id="SVGID_00000129169742658143848740000000584008708388399268_" gradientUnits="userSpaceOnUse" x1="181.3337" y1="35.7366" x2="181.3337" y2="5.2567">
		<stop  offset="0" style="stop-color:#FFED00"/>
		<stop  offset="2.284908e-02" style="stop-color:#FFE700"/>
		<stop  offset="0.1835" style="stop-color:#FBBD00"/>
		<stop  offset="0.3421" style="stop-color:#F29300"/>
		<stop  offset="0.4946" style="stop-color:#EB6D09"/>
		<stop  offset="0.64" style="stop-color:#E74C14"/>
		<stop  offset="0.7762" style="stop-color:#E42E18"/>
		<stop  offset="0.9" style="stop-color:#E30D19"/>
		<stop  offset="1" style="stop-color:#E2001A"/>
	</linearGradient>
	<path style="fill:url(#SVGID_00000129169742658143848740000000584008708388399268_);stroke:#9D391A;stroke-miterlimit:10;" d="
		M183.3,34.9l-1.6,0.2l-0.2-0.7l-0.4,0.7l-0.3-0.1l-0.2,0.1l-0.7-0.1l0.1-0.8l-0.5-0.6v-0.9l-0.4,1l0.3,0.4l-0.1,0.9l-1.3-0.3
		l-0.2-0.8l-0.3,0.7l-1.8-0.4c-0.5-3-1-6.1-1.5-9.2c-0.5-3.1-1.1-6.1-1.6-9.2c-0.1-0.7-0.3-1.4-0.4-2.2c-0.2-1-0.4-2-0.5-2.9
		c-0.2-1.1-0.3-2.2-0.4-3.4c-0.1-0.6-0.1-1.1-0.2-1.7c0.1,0,0.2-0.1,0.3-0.1c0.1,0,0.2,0,0.3,0h1.7l0.2,0.5l0.2-0.5h1.3l-0.1,0.8
		l0.6,0.6l0,0.9l0.4-1l-0.3-0.5l0.1-0.8h1.2l0.3,1.1l0.5-1.1h1.4c0.5,4.5,1.2,9,2.2,13.5l0.6-2.3l1.2-4.5c0.1-0.5,0.1-1,0.1-1.4
		c0-0.3,0.1-0.5,0.1-0.9l0.5-4.6c2.8,0,5.5,0,8.2-0.1v0.3c0,0.1,0,0.1,0,0.1c0,0,0,0.1,0,0.1L190,16.1c-0.1,0.6-0.2,1.2-0.2,1.8
		c-0.1,1-0.3,2.2-0.7,3.4c-0.4,1.1-0.8,2.1-1.2,3c-0.2,0.4-0.5,1-0.7,1.5L183.3,34.9z M177.2,8l-0.2,0.7l0,1.6l0.4-2L177.2,8z
		 M177.5,32.3l0.3-0.6l-0.1-1.6l-0.4,2.1L177.5,32.3z M182.9,35.7l-0.1,0L182.9,35.7L182.9,35.7z"/>
	
		<linearGradient id="SVGID_00000066475626992778976730000002891935599682446479_" gradientUnits="userSpaceOnUse" x1="204.4577" y1="35.2567" x2="204.4577" y2="4.8729">
		<stop  offset="0" style="stop-color:#FFED00"/>
		<stop  offset="2.284908e-02" style="stop-color:#FFE700"/>
		<stop  offset="0.1835" style="stop-color:#FBBD00"/>
		<stop  offset="0.3421" style="stop-color:#F29300"/>
		<stop  offset="0.4946" style="stop-color:#EB6D09"/>
		<stop  offset="0.64" style="stop-color:#E74C14"/>
		<stop  offset="0.7762" style="stop-color:#E42E18"/>
		<stop  offset="0.9" style="stop-color:#E30D19"/>
		<stop  offset="1" style="stop-color:#E2001A"/>
	</linearGradient>
	<path style="fill:url(#SVGID_00000066475626992778976730000002891935599682446479_);stroke:#9D391A;stroke-miterlimit:10;" d="
		M214.5,34.9l-2.7,0.4l-0.3-0.8l-0.4,0.8l-0.3-0.1l-0.3,0.1l-0.8-0.2l0.1-0.9l-0.6-0.7v-1.1l-0.5,1.2l0.4,0.5l-0.1,1
		c-0.1,0-0.2,0-0.3,0c-0.1,0-0.2,0.1-0.3,0.1c-0.1,0-0.3,0-0.4,0c-0.1,0-0.3,0-0.4,0l-0.4-1.3l-0.7,1.3h-0.2c0.1-1,0.1-2,0.1-3.1
		c0-0.3,0-0.7,0-1c-0.7,0-1.3-0.1-2-0.1c-0.7,0-1.3-0.1-2-0.1c0.1,0.8,0.1,1.6,0.1,2.4v1l-1.9,0.2l-0.3-0.8l-0.4,0.9l-0.3-0.2
		l-0.3,0.1l-0.8-0.2l0.1-0.9l-0.6-0.7l0-1.1l-0.5,1.2l0.3,0.5l-0.1,1l-1.4,0.3l-0.4-1.6l-0.8,1.6l-0.3-0.1l-0.5,0.1l-0.1-4.3
		c0-0.3,0-0.6,0-0.9c0-0.4,0-0.9,0-1.3l0.4-6.4c0-0.4,0-0.7,0-1c0-0.6,0.1-1.4,0.2-2.2c0.2-0.7,0.4-1.4,0.6-1.9
		c0.1-0.4,0.3-0.8,0.4-1.2l2.2-6.3l8-4.2l6.2,4l0.8,2.9l1.5,5.7c0.1,0.6,0.1,1.2,0.1,1.6c0,0.3,0,0.6,0,1l0.2,5.3
		c0,2.1-0.1,4.2-0.2,6.3C214.6,32.8,214.5,33.8,214.5,34.9z M195.8,31.2l0.3-0.8l0-1.9l-0.5,2.4L195.8,31.2z M202.3,28.2l0.3,0.2
		c0-0.1,0.1-0.2,0.1-0.3s0-0.3,0-0.4c0-0.1,0-0.2,0-0.3c0-0.1,0-0.2,0-0.2c0-0.1,0-0.1,0-0.1c0,0,0-0.1,0-0.1c0,0,0.1-0.1,0.1-0.2
		c0,0,0,0,0,0v0.1c0,0.1,0,0.1,0,0.2c0,0.1,0,0.2,0,0.2l0.1-0.3h0l0,0l0.1,0c0-0.2,0-0.4,0-0.5l0.1-0.1l0,0c0,0,0,0,0,0h0.1v0
		c0,0,0,0,0,0c0,0,0-0.1,0-0.1c0,0,0,0-0.1,0V26v0c0,0,0-0.1,0-0.1v-0.1c0,0-0.1,0-0.1,0c0,0-0.1,0-0.1,0c0,0,0,0-0.1,0
		c0,0,0,0.1,0,0.1c0,0,0,0.1,0,0.1c0,0.1,0,0.1,0,0.1c0,0,0,0,0,0.1c0,0,0.1,0,0.1,0c0,0,0,0.1,0,0.1c0,0,0,0.1,0,0.1c0,0,0,0,0,0.1
		c0,0,0,0,0,0c0,0,0-0.1,0-0.1c0,0,0-0.1,0-0.1c0,0-0.1,0-0.1,0c0,0-0.1,0-0.1,0s0,0-0.1,0v-0.2V26v0h0l0-0.1h0c0-0.1,0-0.1,0-0.1
		c0,0,0-0.1,0-0.1c0-0.2,0-0.3,0-0.4c0-0.1,0-0.2,0-0.3c0-0.1-0.1-0.2-0.1-0.2c-0.1-0.1-0.2-0.2-0.5-0.3c0-0.1,0.1-0.2,0.1-0.3
		c0-0.1,0-0.3,0-0.4s0-0.2,0-0.3c0-0.1,0-0.2,0-0.3l-0.1,1.3c0,0,0.1,0.1,0.1,0.1c0.1,0.1,0.2,0.1,0.3,0.2c0.1,0.1,0.1,0.2,0.1,0.3
		c0,0,0,0.2,0,0.4c0,0.2,0,0.5-0.1,0.7c0,0.3-0.1,0.5-0.1,0.7c0,0.2,0,0.4,0,0.4c-0.1,0.1-0.1,0.3-0.1,0.4c0,0,0,0.1,0,0.1
		c0,0.1,0,0.1,0.1,0.2L202.3,28.2C202.4,28.1,202.4,28.2,202.3,28.2C202.4,28.2,202.3,28.2,202.3,28.2z M202.6,22.6
		c0.7,0,1.4,0.1,2.2,0.1c0.7,0.1,1.4,0.1,2.1,0.1c0-0.9,0-1.7,0-2.6c0-0.9,0-1.7,0-2.6c0-0.6,0-1.4-0.1-2.4
		c-0.1-0.9-0.3-1.7-0.6-2.3l-2.2,2.1c-0.4,1.1-0.7,2.3-0.9,3.7C202.8,20.2,202.6,21.5,202.6,22.6z M207,32l0.3-0.8l-0.1-1.9
		l-0.5,2.4L207,32z"/>
	
		<linearGradient id="SVGID_00000007391035295096917330000003463840432202682521_" gradientUnits="userSpaceOnUse" x1="230.0769" y1="38.2806" x2="230.0769" y2="5.6888">
		<stop  offset="0" style="stop-color:#FFED00"/>
		<stop  offset="2.284908e-02" style="stop-color:#FFE700"/>
		<stop  offset="0.1835" style="stop-color:#FBBD00"/>
		<stop  offset="0.3421" style="stop-color:#F29300"/>
		<stop  offset="0.4946" style="stop-color:#EB6D09"/>
		<stop  offset="0.64" style="stop-color:#E74C14"/>
		<stop  offset="0.7762" style="stop-color:#E42E18"/>
		<stop  offset="0.9" style="stop-color:#E30D19"/>
		<stop  offset="1" style="stop-color:#E2001A"/>
	</linearGradient>
	<path style="fill:url(#SVGID_00000007391035295096917330000003463840432202682521_);stroke:#9D391A;stroke-miterlimit:10;" d="
		M218.2,6.1V6c0.4,0,0.9,0,1.4,0c1,0,1.9,0,2.8,0c1,0,2-0.1,2.9-0.1c1.2-0.1,2.4-0.1,3.6-0.1c0.1,0,0.4,0.1,1,0.2
		c0.6,0.1,1.3,0.2,2.1,0.4c0.8,0.2,1.6,0.3,2.4,0.5c0.7,0.1,1.4,0.2,1.9,0.4c0.5,0.1,0.9,0.2,1.1,0.2l3.9,7.1l-1.4,5.7l-3.3,4.9
		c1.5,3.1,3.2,6,5.2,8.8c-2.3,1.5-4.6,3-6.9,4.5c-1.7-2.4-3.2-4.9-4.7-7.5c-0.4,0.2-0.8,0.5-1.2,0.8l0.1,3.3
		c-2.8,0.1-5.5,0.2-8.3,0.2c-0.3-6.9-0.4-13.8-0.4-20.6l0.3,0.2l2.3-0.3l0.2,0.7l0.4-0.7l0.3,0.1l0.2,0l0.7,0.1l-0.1,0.8l0.5,0.6
		v0.9l0.4-1l-0.3-0.4l0.1-0.9l1.2-0.2l0.4,1.3l0.7-1.4l0.3,0.1l0.6-0.4l0.1,10.2l0.9-1.5l1.9-3.1c0.1-0.3,0.2-0.7,0.4-1.3
		s0.4-1.3,0.6-2c0.2-0.8,0.4-1.3,0.5-1.7c-0.5-0.3-1.1-0.5-1.9-0.6c-0.7-0.2-1.4-0.2-2-0.2h0l-8.8,0.1v-0.1h-2.3l0.7-0.4l-0.6-0.6
		l3.6-0.4l-3.4,0l0.6-1.1l-0.9-1.6l1.1-0.5l-1.2-0.2l0.1-1.9L218.2,6.1z M227.4,17l-0.3,0.7l0.1,1.6l0.4-2.1L227.4,17z"/>
	
		<linearGradient id="SVGID_00000065061422835184433850000004806819664494605235_" gradientUnits="userSpaceOnUse" x1="255.912" y1="35.2567" x2="255.912" y2="4.8729">
		<stop  offset="0" style="stop-color:#FFED00"/>
		<stop  offset="2.284908e-02" style="stop-color:#FFE700"/>
		<stop  offset="0.1835" style="stop-color:#FBBD00"/>
		<stop  offset="0.3421" style="stop-color:#F29300"/>
		<stop  offset="0.4946" style="stop-color:#EB6D09"/>
		<stop  offset="0.64" style="stop-color:#E74C14"/>
		<stop  offset="0.7762" style="stop-color:#E42E18"/>
		<stop  offset="0.9" style="stop-color:#E30D19"/>
		<stop  offset="1" style="stop-color:#E2001A"/>
	</linearGradient>
	<path style="fill:url(#SVGID_00000065061422835184433850000004806819664494605235_);stroke:#9D391A;stroke-miterlimit:10;" d="
		M266,34.9l-2.7,0.4l-0.3-0.8l-0.4,0.8l-0.3-0.1l-0.3,0.1l-0.8-0.2l0.1-0.9l-0.6-0.7v-1.1l-0.5,1.2l0.4,0.5l-0.1,1
		c-0.1,0-0.2,0-0.3,0c-0.1,0-0.2,0.1-0.3,0.1c-0.1,0-0.3,0-0.4,0c-0.1,0-0.3,0-0.4,0l-0.4-1.3l-0.7,1.3h-0.2c0.1-1,0.1-2,0.1-3.1
		c0-0.3,0-0.7,0-1c-0.7,0-1.3-0.1-2-0.1c-0.7,0-1.3-0.1-2-0.1c0.1,0.8,0.1,1.6,0.1,2.4v1l-1.9,0.2l-0.3-0.8l-0.4,0.9l-0.3-0.2
		l-0.3,0.1l-0.8-0.2l0.1-0.9l-0.6-0.7l0-1.1l-0.5,1.2l0.3,0.5l-0.1,1l-1.4,0.3l-0.4-1.6l-0.8,1.6l-0.3-0.1l-0.5,0.1l-0.1-4.3
		c0-0.3,0-0.6,0-0.9c0-0.4,0-0.9,0-1.3l0.4-6.4c0-0.4,0-0.7,0-1c0-0.6,0.1-1.4,0.2-2.2c0.2-0.7,0.4-1.4,0.6-1.9
		c0.1-0.4,0.3-0.8,0.4-1.2l2.2-6.3l8-4.2l6.2,4l0.8,2.9l1.5,5.7c0.1,0.6,0.1,1.2,0.1,1.6c0,0.3,0,0.6,0,1l0.2,5.3
		c0,2.1-0.1,4.2-0.2,6.3C266,32.8,266,33.8,266,34.9z M247.3,31.2l0.3-0.8l0-1.9l-0.5,2.4L247.3,31.2z M253.8,28.2l0.3,0.2
		c0-0.1,0.1-0.2,0.1-0.3c0-0.1,0-0.3,0-0.4s0-0.2,0-0.3c0-0.1,0-0.2,0-0.2c0-0.1,0-0.1,0-0.1c0,0,0-0.1,0-0.1c0,0,0.1-0.1,0.1-0.2
		c0,0,0,0,0,0v0.1c0,0.1,0,0.1,0,0.2c0,0.1,0,0.2,0,0.2l0.1-0.3h0l0,0l0.1,0c0-0.2,0-0.4,0-0.5l0.1-0.1l0,0c0,0,0,0,0,0h0.1v0
		c0,0,0,0,0,0c0,0,0-0.1,0-0.1c0,0,0,0-0.1,0V26v0c0,0,0-0.1,0-0.1v-0.1c0,0-0.1,0-0.1,0c0,0-0.1,0-0.1,0c0,0,0,0-0.1,0
		c0,0,0,0.1,0,0.1c0,0,0,0.1,0,0.1c0,0.1,0,0.1,0,0.1c0,0,0,0,0,0.1c0,0,0.1,0,0.1,0c0,0,0,0.1,0,0.1c0,0,0,0.1,0,0.1c0,0,0,0,0,0.1
		c0,0,0,0,0,0c0,0,0-0.1,0-0.1c0,0,0-0.1,0-0.1c0,0-0.1,0-0.1,0c0,0-0.1,0-0.1,0c0,0,0,0-0.1,0v-0.2V26v0h0l0-0.1h0
		c0-0.1,0-0.1,0-0.1c0,0,0-0.1,0-0.1c0-0.2,0-0.3,0-0.4c0-0.1,0-0.2,0-0.3c0-0.1-0.1-0.2-0.1-0.2c-0.1-0.1-0.2-0.2-0.5-0.3
		c0-0.1,0.1-0.2,0.1-0.3c0-0.1,0-0.3,0-0.4s0-0.2,0-0.3c0-0.1,0-0.2,0-0.3l-0.1,1.3c0,0,0.1,0.1,0.1,0.1c0.1,0.1,0.2,0.1,0.3,0.2
		c0.1,0.1,0.1,0.2,0.1,0.3c0,0,0,0.2,0,0.4c0,0.2,0,0.5-0.1,0.7c0,0.3-0.1,0.5-0.1,0.7c0,0.2,0,0.4,0,0.4c-0.1,0.1-0.1,0.3-0.1,0.4
		c0,0,0,0.1,0,0.1c0,0.1,0,0.1,0.1,0.2L253.8,28.2C253.8,28.1,253.9,28.2,253.8,28.2C253.8,28.2,253.8,28.2,253.8,28.2z M254,22.6
		c0.7,0,1.4,0.1,2.2,0.1c0.7,0.1,1.4,0.1,2.1,0.1c0-0.9,0-1.7,0-2.6c0-0.9,0-1.7,0-2.6c0-0.6,0-1.4-0.1-2.4
		c-0.1-0.9-0.3-1.7-0.6-2.3l-2.2,2.1c-0.4,1.1-0.7,2.3-0.9,3.7S254.1,21.5,254,22.6z M258.4,32l0.3-0.8l-0.1-1.9l-0.5,2.4L258.4,32z
		"/>
	
		<linearGradient id="SVGID_00000119080206753160493060000013273796544650134446_" gradientUnits="userSpaceOnUse" x1="281.6287" y1="37.6566" x2="281.6287" y2="5.3528">
		<stop  offset="0" style="stop-color:#FFED00"/>
		<stop  offset="2.284908e-02" style="stop-color:#FFE700"/>
		<stop  offset="0.1835" style="stop-color:#FBBD00"/>
		<stop  offset="0.3421" style="stop-color:#F29300"/>
		<stop  offset="0.4946" style="stop-color:#EB6D09"/>
		<stop  offset="0.64" style="stop-color:#E74C14"/>
		<stop  offset="0.7762" style="stop-color:#E42E18"/>
		<stop  offset="0.9" style="stop-color:#E30D19"/>
		<stop  offset="1" style="stop-color:#E2001A"/>
	</linearGradient>
	<path style="fill:url(#SVGID_00000119080206753160493060000013273796544650134446_);stroke:#9D391A;stroke-miterlimit:10;" d="
		M290.4,37.7l-0.5-0.1l-0.4-0.4l-2.3-0.3l-0.1-0.7l-0.5,0.6l-0.2-0.2l-0.3,0l-0.6-0.3l0.3-0.7l-0.3-0.8l0.2-0.9l-0.7,0.9l0.2,0.5
		l-0.3,0.8l-1.2,0v-1.4l-1.1,1.2l-0.1-0.1l0.4-2.7l0.8-5.5c0.1-0.7,0.1-1.2,0-1.7c0-0.4,0-0.8,0-1.2l0.2-5.8c0-0.7-0.1-1.5-0.2-2.3
		c0-0.4-0.1-0.8-0.1-1.1l-1.9-2.4l-1.3,0.3l-1.1,0.8c0,1.7,0,3.4,0,5.1c0,1.7,0,3.5,0,5.2c0,2.1,0,4.1,0.1,6.2
		c0,1.4,0.1,2.8,0.1,4.1c-2.8,0.1-5.5,0.1-8.3,0.2c-0.1-4.5-0.1-9.1-0.1-13.6c0-5.2,0-10.4,0.1-15.5l2-0.3l0.3,0.7l0.3-0.7l0.3,0.1
		l0.3-0.1l0.6,0.2l-0.1,0.8l0.6,0.6l0,0.9l0.4-1.1l-0.3-0.4l0.1-0.8l1.2-0.3l0.4,1.3l0.7-1.3h0.2l0.1,0.1l0.1-0.1l1.1,0v1.1
		c1.8-0.6,3.5-0.9,5.1-0.9l6.4,5.2l0.8,6c0.1,0.4,0.1,0.8,0.2,1.2c0.1,0.5,0.2,1.1,0.2,1.9l-0.3,6c0,0.3,0,0.6,0,0.9
		c0,0.6,0,1.3-0.1,2.1l-0.9,5.9L290.4,37.7z M277.3,8.2l-0.2,0.6l0,1.6l0.4-2.1L277.3,8.2z M283.9,33l0.4-0.6l0.4-1.6l-1,1.9
		L283.9,33z"/>
</g>
<g>
	
		<linearGradient id="SVGID_00000042715358968961258800000006553549298349580731_" gradientUnits="userSpaceOnUse" x1="324.8518" y1="35.3528" x2="324.8518" y2="5.3528">
		<stop  offset="0" style="stop-color:#D0EBF2"/>
		<stop  offset="1" style="stop-color:#005CA7"/>
	</linearGradient>
	<path style="fill:url(#SVGID_00000042715358968961258800000006553549298349580731_);stroke:#334996;stroke-miterlimit:10;" d="
		M336.3,15.7l-0.5-0.1l-2.1,1.1l-0.5-0.6l-0.1,0.8l-0.3,0l-0.2,0.1l-0.7,0l-0.1-0.7l-0.7-0.4l-0.2-0.9l-0.1,1.1l0.4,0.3l0.1,0.9
		l-1,0.6l-0.8-1.2l-0.2,1.5l-0.3,0l-0.3,0.4l-1.3-3l-2.2-2.1l-2.1,1.6l-1.1,2.5l7.2,2.8l7.2,6.8l-3.4,6.3c-0.2,0-0.6,0.1-1.4,0.3
		c-0.8,0.2-1.6,0.4-2.5,0.6c-0.9,0.2-1.7,0.4-2.4,0.6c-0.7,0.2-1.1,0.3-1.1,0.3c-0.3,0-0.6,0-0.8,0c-0.2,0-0.5,0-0.7-0.1
		c-0.2,0-0.4-0.1-0.6-0.1l-4.2-0.3c-0.5-0.1-1-0.2-1.4-0.3c-0.2,0-0.4-0.1-0.6-0.1l-4-1l0.6-0.1l-0.3-0.8l3.6,0.9l-3.2-1.3l1-0.8
		l-0.2-1.8l1.2-0.1l-1-0.6l0.8-1.7c0-0.1,0-0.2,0-0.3c0-0.2,0-0.4,0-0.7c0-0.2,0-0.4,0-0.4l3.9,1.1c0.3,0.1,0.5,0.1,0.7,0.2
		c0.4,0.1,0.8,0.2,1.2,0.3c0.4,0.1,0.7,0.1,1,0.1c0.3,0,0.6,0.1,1,0.1l4,0.5c0.1,0,0.2,0,0.2,0c0.1,0,0.1,0,0.2,0s0.1,0,0.2,0
		l0.4-0.3c-0.6-0.4-1.3-0.7-2-0.9c-0.2-0.1-0.4-0.1-0.7-0.2l-7.9-2.3l-4.3-6.2l3.4-8.6l8.2-4.1l7.2,3.5L336.3,15.7z M329,15.2l0-0.7
		l-0.6-1.5l0.2,2.1L329,15.2z"/>
	
		<linearGradient id="SVGID_00000000205494969382569110000006787593367162660280_" gradientUnits="userSpaceOnUse" x1="351.2034" y1="35.5926" x2="351.2034" y2="5.0169">
		<stop  offset="0" style="stop-color:#D0EBF2"/>
		<stop  offset="1" style="stop-color:#005CA7"/>
	</linearGradient>
	<path style="fill:url(#SVGID_00000000205494969382569110000006787593367162660280_);stroke:#334996;stroke-miterlimit:10;" d="
		M351,35.6l-8.7-5.3L339.7,20l3-10.8L353,5l7.5,4.1l2.2,8.7l-2.8,11.3L351,35.6z M350.8,29l2.8-4.7l0.6-4.1c0-0.3,0.1-0.6,0.1-0.8
		c0.1-0.3,0.1-0.7,0.1-1.2c0-0.7-0.1-1.4-0.2-2.2c0-0.2,0-0.4,0-0.6l-1.2-2.2l-4.5,2.3c0,0.2-0.1,0.4-0.1,0.8
		c-0.1,0.8-0.3,1.6-0.4,2.6c-0.1,0.9-0.2,1.6-0.2,1.9c0,0.3,0.1,0.9,0.2,1.8c0.1,0.9,0.3,1.7,0.4,2.4c0,0.3,0.1,0.5,0.1,0.6
		L350.8,29z"/>
	
		<linearGradient id="SVGID_00000085223249694941769060000008065748712516742562_" gradientUnits="userSpaceOnUse" x1="376.6677" y1="34.8729" x2="376.6677" y2="4.7767">
		<stop  offset="0" style="stop-color:#D0EBF2"/>
		<stop  offset="1" style="stop-color:#005CA7"/>
	</linearGradient>
	<path style="fill:url(#SVGID_00000085223249694941769060000008065748712516742562_);stroke:#334996;stroke-miterlimit:10;" d="
		M383.3,25.8v0.3l1.3,1.9l-0.5,0.5h0.8v0.3l0.2,0.2l0.1,0.7l-0.7,0.2l-0.3,0.8l-0.8,0.4l1.1-0.1l0.2-0.5l0.8-0.2l0.8,0.9l-1.1,1h1.6
		v0.3l0.6,0.3c-0.1,0.1-0.3,0.1-0.5,0.2c-0.6,0.3-1.4,0.5-2.2,0.8c-0.8,0.3-1.5,0.5-1.9,0.6l-3.4,0.3l-1.7,0.1l-9.4-3.5l-2.4-9.8
		l2.4-10.8l8.5-6l5.5,1.6l4.5,3.6l-1.2,1.1l0.6-1.1l-1.4,0.7c-0.1,0.1-0.2,0.4-0.3,0.7c-0.1,0.3-0.3,0.6-0.4,0.9
		c-0.1,0.3-0.2,0.5-0.3,0.6l-0.7-0.1l0.3,0.5l-1,0.9l-0.3-0.2l-0.8,0.1l-0.8-0.5l0.7,0.9l0.5,0l0.3,0.2l-1.2,1.2c0,0-0.1,0-0.1,0
		c-0.2-0.2-0.4-0.3-0.6-0.5c-0.4-0.4-0.8-0.7-1.2-1.1l-1.4-0.7l-0.7-0.4l-2.4,4.4l-0.5,3.8c0,0.3-0.1,0.5-0.1,0.7
		c-0.1,0.3-0.1,0.7-0.1,1.2c0,0,0,0.2,0,0.4c0,0.2,0.1,0.5,0.1,0.7c0.1,0.3,0.1,0.6,0.2,0.9c0,0.3,0.1,0.5,0.1,0.6
		c0,0.2,0.1,0.3,0.1,0.4c0,0,0.2,0,0.4,0.1c0.2,0.1,0.5,0.1,0.8,0.2c0.3,0.1,0.6,0.1,0.8,0.2c0.3,0.1,0.6,0.2,0.9,0.3
		c0.4,0,0.9,0,1.5,0c0.6,0,1.2-0.1,1.5-0.1c0.6-0.1,1.2-0.3,1.8-0.5C382.6,26,382.9,25.9,383.3,25.8z M383.9,33l-0.7,0.1l-1.4,0.8
		l2-0.5L383.9,33z"/>
	
		<linearGradient id="SVGID_00000016048719483756220920000014843969226237047990_" gradientUnits="userSpaceOnUse" x1="395.4348" y1="35.1605" x2="395.4348" y2="5.2088">
		<stop  offset="0" style="stop-color:#D0EBF2"/>
		<stop  offset="1" style="stop-color:#005CA7"/>
	</linearGradient>
	<path style="fill:url(#SVGID_00000016048719483756220920000014843969226237047990_);stroke:#334996;stroke-miterlimit:10;" d="
		M399.4,34.6c-0.3,0-0.6,0-1,0c-0.5,0-1.1,0-1.6,0c-0.6,0.1-1.3,0.2-2,0.4c-0.3,0.1-0.5,0.1-0.8,0.2l-2.5-0.4c0-0.1,0-0.2,0-0.4
		c-0.1-0.6-0.2-1.3-0.3-2.1c-0.1-0.8-0.2-1.4-0.2-1.8c0-0.7,0.1-1.5,0.2-2.2c0.2-0.8,0.2-1.5,0.2-2.2c0-0.7-0.1-1.5-0.2-2.2
		c-0.2-0.8-0.3-1.5-0.3-2.2c0-0.9,0.1-1.8,0.3-2.7c0.2-0.9,0.2-1.8,0.2-2.7c0-0.9-0.1-1.8-0.2-2.7c-0.2-0.9-0.2-1.8-0.2-2.7
		c0-0.4,0-0.8,0.1-1.4c0.1-0.6,0.1-1.1,0.2-1.8c0.1-0.7,0.2-1.4,0.2-1.9l2.1-0.3l0.2,0.7l0.3-0.7l0.3,0.1l0.3-0.1l0.7,0.1l-0.1,0.8
		l0.5,0.6v0.9l0.4-1L396,6.5l0.1-0.9l0.5-0.1l0.3,0.1l0.4-0.1l0.3,1.2l0.6-1.3c0.1,0,0.1,0,0.2,0s0.1,0,0.2,0
		c0.1-0.1,0.2-0.1,0.4-0.1c0.2,0,0.3,0,0.5-0.1c0.2,0,0.3,0,0.3,0l-0.4,6.7c0,0.3,0,0.6,0,0.9c-0.1,0.4-0.1,0.8-0.1,1.2
		c0,0.4,0,0.8,0,1.3c0,1.6,0.1,3.3,0.2,4.9c0.1,1.6,0.2,3.3,0.2,4.9c0,2.4,0,4.8-0.1,7.2C399.5,33,399.5,33.8,399.4,34.6z
		 M397.8,8.2l-0.3,0.7l0.1,1.6l0.4-2.1L397.8,8.2z"/>
	
		<linearGradient id="SVGID_00000065768624066367035720000002435870181734274184_" gradientUnits="userSpaceOnUse" x1="413.6252" y1="34.5848" x2="413.6252" y2="5.2567">
		<stop  offset="0" style="stop-color:#D0EBF2"/>
		<stop  offset="1" style="stop-color:#005CA7"/>
	</linearGradient>
	<path style="fill:url(#SVGID_00000065768624066367035720000002435870181734274184_);stroke:#334996;stroke-miterlimit:10;" d="
		M421,13.4c-5.7,0-11.4,0.1-17.1,0.2c0.1-0.9,0.1-1.7,0-2.6c0-0.3,0-0.6,0-0.9c0-0.6,0.1-1.3,0.1-1.9c0.1-0.9,0.1-1.9,0.1-2.8
		c1.9,0,3.8,0,5.6,0c2.8-0.1,5.7-0.1,8.5-0.1h2.8v0.1L420.7,6l0.3,2.3l-0.7,0.2l0.7,0.3l-0.1,0.3l0,0.2l-0.1,0.7L420,10l-0.6,0.6
		h-0.9l1,0.4l0.4-0.3l0.9,0.1c0,0,0,0.1,0,0.2c0,0.1,0.1,0.2,0.1,0.4c0,0.1,0,0.2,0,0.3v0.2l-1.2,0.4l1.2,0.6V13.4z M421.8,25.8
		c0,0.2,0,0.3,0,0.4c0,0.2-0.1,0.4-0.1,0.6c0,0.2,0,0.3,0,0.4l0.7,1.8l-1.1,0.5l1.2,0.2l-0.4,1.8l0.9,1l-3.3,1l3.6-0.6l-0.3,0.8
		l0.5,0.1v0c-0.6,0.1-1.2,0.1-1.8,0.2c-1.1,0.2-2.1,0.3-3.1,0.4c-0.5,0-1.1,0-1.7,0c-0.4,0-0.7,0-1.1,0c-0.8,0.1-1.5,0.1-2.3,0.1
		c-0.2,0-0.4,0-0.6,0c-0.2,0-0.4,0-0.6,0c-0.3,0-0.6,0-1,0c-0.6,0-1.2,0-1.6-0.1c-0.1,0-0.3-0.1-0.5-0.1c-0.2-0.1-0.3-0.1-0.5-0.2
		c-0.1,0-0.1-0.1-0.2-0.1c-0.6-0.2-1.3-0.4-1.9-0.6c-0.1-0.1-0.3-0.1-0.4-0.1c-0.2-0.9-0.4-1.8-0.6-2.7c-0.2-0.9-0.4-1.8-0.6-2.7
		c-0.1-0.3-0.1-0.6-0.2-1c-0.2-0.6-0.3-1.2-0.4-1.7c-0.1-1-0.1-2.1-0.1-3.3c0-0.3,0-0.5,0-0.7c0-0.8,0-1.5,0-2.3
		c-0.1-1.5-0.1-3-0.1-4.6V14l0.7,0.5l2.3-0.3l0.2,0.7l0.4-0.7l0.3,0.1l0.2-0.1l0.7,0.1l-0.1,0.8l0.5,0.6v0.9l0.4-1.1l-0.3-0.4
		l0.1-0.8l1.2-0.3l0.4,1.3l0.7-1.4l0.2,0.1c0,0.2,0,0.3,0,0.5c0,0.2,0,0.4,0,0.5c0,0.6,0,1.2,0,1.8l9.2-0.3c0.1,1.2,0.1,2.4,0.2,3.6
		c0,1.2,0.1,2.4,0.1,3.6c-1.6,0.1-3.1,0.1-4.7,0.1c-1.6,0.1-3.1,0.1-4.7,0.2v0.3c0,0.4,0.1,0.8,0.3,1.1c0.1,0.2,0.2,0.5,0.2,0.7
		c0.2,0,0.4,0.1,0.7,0.1c0.4,0.1,0.7,0.1,1.1,0.1C416.7,26.5,419.2,26.3,421.8,25.8z M411.1,16.9l-0.3,0.6l0.1,1.6l0.4-2.1
		L411.1,16.9z M418.3,12.5l-0.7-0.2l-1.6,0.1l2.1,0.4L418.3,12.5z"/>
	
		<linearGradient id="SVGID_00000068649536878204785590000007929261869681136524_" gradientUnits="userSpaceOnUse" x1="435.6824" y1="35.2088" x2="435.6824" y2="5.3045">
		<stop  offset="0" style="stop-color:#D0EBF2"/>
		<stop  offset="1" style="stop-color:#005CA7"/>
	</linearGradient>
	<path style="fill:url(#SVGID_00000068649536878204785590000007929261869681136524_);stroke:#334996;stroke-miterlimit:10;" d="
		M439.9,13.7l0.8-0.6l-9.1,0.3c-0.1,0-0.2,0-0.3,0c-0.1,0-0.2,0-0.3,0l0,0l-1.5,0.3l-1.9-0.4l-2,0.4c0-0.4,0.1-0.7,0.1-1.1
		c0.1-0.6,0.2-1.2,0.2-1.8c0-0.4-0.1-0.9-0.2-1.4c-0.2-0.5-0.2-0.9-0.2-1.3c0-0.5,0.1-1.1,0.2-1.7c0.1-0.3,0.1-0.6,0.1-0.9l4.3-0.2
		c0.3,0,0.6,0,0.9,0c0.4-0.1,0.8-0.1,1.3-0.1c1.1,0,2.2,0.1,3.4,0.2c1.1,0.1,2.2,0.2,3.3,0.2c0.5,0,1,0,1.4-0.1c0.3,0,0.5,0,0.9,0
		l4.6-0.2c0,0.3-0.1,0.6-0.1,1c-0.2,0.8-0.2,1.4-0.2,1.9c0,0.4,0.1,0.9,0.2,1.3c0.1,0.5,0.2,0.9,0.2,1.4c0,0.4-0.1,1-0.2,1.6
		c-0.1,0.4-0.1,0.7-0.1,0.9l-1.9,0.4l-2-0.5L439.9,13.7z M439.6,34.8l-2.7,0.4l-0.2-0.7l-0.3,0.7l-0.3,0l0,0l0,0l-0.9-0.1l0.1-0.7
		l-0.5-0.6l0-0.9l-0.4,1l0.3,0.4l-0.1,0.7l-0.1,0l-1.1,0.2l-0.3-1.1l-0.6,1.2c-0.2,0-0.3,0-0.4,0c-0.2,0-0.3,0-0.5,0
		c0-0.8,0.1-1.6,0.1-2.4c0.1-1.7,0.2-3.3,0.2-4.9c0-1.2-0.1-2.4-0.2-3.6c-0.2-1.2-0.2-2.4-0.2-3.6c0-1.4,0.1-2.9,0.2-4.4
		c0.1-0.9,0.1-1.7,0.1-2.5l0.7,0.5l2.3-0.4l0.3,0.7l0.3-0.7l0.3,0.1l0.3,0l0.7,0.1l-0.1,0.8l0.5,0.6v0.9l0.4-1.1l-0.3-0.4l0.1-0.8
		l1.2-0.3l0.4,1.3l0.7-1.4l0.3,0.1l0.2-0.1l-0.2,4.6c0,0.4,0,0.7,0,0.9c-0.1,0.4-0.1,0.8-0.1,1.4c0,1.2,0.1,2.4,0.3,3.6
		c0.2,1.2,0.2,2.4,0.2,3.6c0,1.5-0.1,3.1-0.2,4.7C439.6,33.2,439.6,34,439.6,34.8z M432.8,32.4l0.2-0.6l0-1.6l-0.4,2.1L432.8,32.4z
		 M438.7,16.7l-0.2,0.7l0.1,1.6l0.4-2L438.7,16.7z"/>
	
		<linearGradient id="SVGID_00000003088659993955094110000013534234561668600985_" gradientUnits="userSpaceOnUse" x1="459.6412" y1="37.6087" x2="459.6412" y2="5.7366">
		<stop  offset="0" style="stop-color:#D0EBF2"/>
		<stop  offset="1" style="stop-color:#005CA7"/>
	</linearGradient>
	<path style="fill:url(#SVGID_00000003088659993955094110000013534234561668600985_);stroke:#334996;stroke-miterlimit:10;" d="
		M460,37.6l-0.8-0.5l-0.4-0.5c-0.1,0-0.2-0.1-0.3-0.1c-0.2-0.1-0.4-0.2-0.6-0.3c-0.2-0.1-0.4-0.2-0.6-0.3c-0.2-0.1-0.3-0.1-0.3-0.2
		l0.4-1.1l-1,0.7l-1-1.5l-1.2,0l1.6-3l-2.1,2.9l0,0l-0.3-0.7l-0.3,0.2c1-1.7,2-3.4,2.8-5.1l-5.6-8.6L448.9,9c0-0.4,0-0.9,0-1.5
		c0-0.6,0.1-1.1,0.1-1.6l0.6,0.4l2.3-0.3l0.3,0.7l0.3-0.7l0.3,0.1l0.3-0.1l0.7,0.2L453.6,7l0.5,0.6l0,0.9l0.4-1.1L454.3,7l0.1-0.8
		l0.8-0.2l0.4,0l0.3,1.2l0.6-1.2l0.8,0c-0.1,0.5-0.1,1-0.1,1.5c0,1.2,0,2.5,0.1,3.8c0,0.4,0.1,0.8,0.1,1.2c0,0.2,0,0.4,0,0.6
		c0,0.4,0,0.8,0.1,1.2l1.2,3.4l0.6,1.7l1.2-4.6c0.1-0.3,0.2-0.5,0.2-0.8c0.1-0.4,0.3-0.9,0.4-1.5l0.6-4.7l0.3-2.4l8.3,0.3l-2.3,10.9
		c-0.1,0.7-0.2,1.4-0.3,2c-0.1,1-0.4,2.2-0.8,3.5l-4.7,10.1L460,37.6z M456,8.8l-0.2,0.6l0,1.6l0.4-2.1L456,8.8z"/>
</g>
</svg>
